<svg xmlns="http://www.w3.org/2000/svg" viewBox="-82.95 -510 479.04 545" width="479.04" height="545" role="img" aria-labelledby="extruder-30-title extruder-30-desc" data-yaw="30" data-outlet-x="-12.30" data-outlet-y="-163.81">
    <title id="extruder-30-title">Extruder housing — 30 degree view from the die</title>
    <desc id="extruder-30-desc">White enclosed screw barrel with a dark steel base, circular metal outlet flange, ventilated lid, feed connection and rear motor. Transparent background. Orthographic view at 12 degrees elevation.</desc>
    <defs>
      <linearGradient id="extruder-30-lid" x2="0.2" y2="1"><stop stop-color="#fafbf8"/><stop offset="1" stop-color="#d5dcdb"/></linearGradient>
      <linearGradient id="extruder-30-end" x2="1" y2="0.5"><stop stop-color="#454d50"/><stop offset="1" stop-color="#30373b"/></linearGradient>
      <linearGradient id="extruder-30-metal" x1="0" y1="0" x2="0.8" y2="1"><stop stop-color="#f2f4f1"/><stop offset=".48" stop-color="#c3cccf"/><stop offset="1" stop-color="#89979e"/></linearGradient>
      <linearGradient id="extruder-30-drive" x2="1" y2="1"><stop stop-color="#5e676b"/><stop offset="1" stop-color="#252d31"/></linearGradient>
    </defs>
    <path data-part="foot" d="M152.07,-103.31 L190.17,-98.74 L219.17,-109.18 L181.07,-113.76 Z" fill="#626b6f" stroke="#454d50" stroke-width="0.65" stroke-linejoin="round"/>
<path data-part="leveling-bolt" d="M175.06,-126.87 L187.18,-125.42 L196.18,-128.66 L184.06,-130.12 Z" fill="#bec6c8" stroke="#454d50" stroke-width="0.65" stroke-linejoin="round"/>
<path data-part="leveling-bolt" d="M187.18,-103.90 L196.18,-107.14 L196.18,-128.66 L187.18,-125.42 Z" fill="#899297" stroke="#454d50" stroke-width="0.65" stroke-linejoin="round"/>
<path data-part="leveling-bolt" d="M175.06,-105.36 L187.18,-103.90 L187.18,-125.42 L175.06,-126.87 Z" fill="#7b8488" stroke="#454d50" stroke-width="0.65" stroke-linejoin="round"/>
<path data-part="support-bracket" d="M167.73,-151.75 L188.51,-149.25 L203.51,-154.65 L182.73,-157.15 Z" fill="#5b6468" stroke="#454d50" stroke-width="0.65" stroke-linejoin="round"/>
<path data-part="foot" d="M190.17,-93.85 L219.17,-104.29 L219.17,-109.18 L190.17,-98.74 Z" fill="#41494c" stroke="#454d50" stroke-width="0.65" stroke-linejoin="round"/>
<path data-part="support-bracket" d="M188.51,-118.93 L203.51,-124.33 L203.51,-154.65 L188.51,-149.25 Z" fill="#424a4e" stroke="#454d50" stroke-width="0.65" stroke-linejoin="round"/>
<path data-part="support-bracket" d="M167.73,-121.42 L188.51,-118.93 L188.51,-149.25 L167.73,-151.75 Z" fill="#343b3e" stroke="#454d50" stroke-width="0.65" stroke-linejoin="round"/>
<path data-part="fan-cover" d="M318.25,-377.74 L328.25,-381.34 L332.92,-383.39 L322.92,-379.79 Z" fill="#292d2e" stroke="#292d2e" stroke-width="0.25" stroke-linejoin="round"/>
<path data-part="fan-cover" d="M292.69,-465.84 L302.69,-469.44 L297.75,-468.14 L287.75,-464.54 Z" fill="#3e4243" stroke="#3e4243" stroke-width="0.25" stroke-linejoin="round"/>
<path data-part="foot" d="M152.07,-98.42 L190.17,-93.85 L190.17,-98.74 L152.07,-103.31 Z" fill="#343a3d" stroke="#454d50" stroke-width="0.65" stroke-linejoin="round"/>
<path data-part="fan-cover" d="M322.92,-379.79 L332.92,-383.39 L337.25,-386.14 L327.25,-382.54 Z" fill="#292d2e" stroke="#292d2e" stroke-width="0.25" stroke-linejoin="round"/>
<path data-part="fan-cover" d="M297.80,-466.38 L307.80,-469.98 L302.69,-469.44 L292.69,-465.84 Z" fill="#404445" stroke="#404445" stroke-width="0.25" stroke-linejoin="round"/>
<path data-part="fan-cover" d="M327.25,-382.54 L337.25,-386.14 L341.17,-389.55 L331.17,-385.95 Z" fill="#292d2e" stroke="#292d2e" stroke-width="0.25" stroke-linejoin="round"/>
<path data-part="fan-cover" d="M303.00,-466.14 L313.00,-469.74 L307.80,-469.98 L297.80,-466.38 Z" fill="#414546" stroke="#414546" stroke-width="0.25" stroke-linejoin="round"/>
<path data-part="fan-cover" d="M342.81,-416.35 L342.62,-420.79 L342.05,-425.22 L341.10,-429.62 L339.78,-433.94 L338.11,-438.13 L336.10,-442.16 L333.77,-445.98 L331.14,-449.57 L328.25,-452.88 L325.11,-455.89 L321.75,-458.56 L318.22,-460.87 L314.54,-462.80 L310.75,-464.33 L306.88,-465.44 L302.97,-466.13 L299.07,-466.38 L295.20,-466.20 L291.41,-465.58 L287.73,-464.53 L284.20,-463.07 L280.84,-461.20 L277.70,-458.95 L274.81,-456.33 L272.18,-453.38 L269.85,-450.11 L267.84,-446.56 L266.17,-442.77 L264.85,-438.77 L263.90,-434.60 L263.33,-430.30 L263.14,-425.92 L263.33,-421.48 L263.90,-417.05 L264.85,-412.65 L266.17,-408.33 L267.84,-404.14 L269.85,-400.11 L272.18,-396.29 L274.81,-392.70 L277.70,-389.39 L280.84,-386.38 L284.20,-383.71 L287.73,-381.39 L291.41,-379.47 L295.20,-377.94 L299.07,-376.83 L302.97,-376.14 L306.88,-375.89 L310.75,-376.07 L314.54,-376.69 L318.22,-377.73 L321.75,-379.20 L325.11,-381.07 L328.25,-383.32 L331.14,-385.94 L333.77,-388.89 L336.10,-392.16 L338.11,-395.71 L339.78,-399.50 L341.10,-403.50 L342.05,-407.67 L342.62,-411.97 Z" fill="url(#extruder-30-drive)" stroke="#454d50" stroke-width="0.65" stroke-linejoin="round"/>
<path data-part="fan-cover" d="M331.17,-385.95 L341.17,-389.55 L344.60,-393.56 L334.60,-389.96 Z" fill="#292d2e" stroke="#292d2e" stroke-width="0.25" stroke-linejoin="round"/>
<path data-part="fan-cover" d="M308.20,-465.13 L318.20,-468.73 L313.00,-469.74 L303.00,-466.14 Z" fill="#434748" stroke="#434748" stroke-width="0.25" stroke-linejoin="round"/>
<path data-part="fan-cover" d="M334.60,-389.96 L344.60,-393.56 L347.50,-398.11 L337.50,-394.50 Z" fill="#292d2e" stroke="#292d2e" stroke-width="0.25" stroke-linejoin="round"/>
<path data-part="fan-cover" d="M313.31,-463.37 L323.31,-466.97 L318.20,-468.73 L308.20,-465.13 Z" fill="#434748" stroke="#434748" stroke-width="0.25" stroke-linejoin="round"/>
<path data-part="fan-cover" d="M337.50,-394.50 L347.50,-398.11 L349.80,-403.11 L339.80,-399.51 Z" fill="#292d2e" stroke="#292d2e" stroke-width="0.25" stroke-linejoin="round"/>
<path data-part="fan-cover" d="M318.25,-460.88 L328.25,-464.48 L323.31,-466.97 L313.31,-463.37 Z" fill="#444849" stroke="#444849" stroke-width="0.25" stroke-linejoin="round"/>
<path data-part="fan-cover" d="M339.80,-399.51 L349.80,-403.11 L351.48,-408.48 L341.48,-404.88 Z" fill="#292d2e" stroke="#292d2e" stroke-width="0.25" stroke-linejoin="round"/>
<path data-part="fan-cover" d="M322.92,-457.72 L332.92,-461.32 L328.25,-464.48 L318.25,-460.88 Z" fill="#444849" stroke="#444849" stroke-width="0.25" stroke-linejoin="round"/>
<path data-part="fan-cover" d="M341.48,-404.88 L351.48,-408.48 L352.50,-414.13 L342.50,-410.53 Z" fill="#2d3132" stroke="#2d3132" stroke-width="0.25" stroke-linejoin="round"/>
<path data-part="fan-cover" d="M327.25,-453.93 L337.25,-457.53 L332.92,-461.32 L322.92,-457.72 Z" fill="#434748" stroke="#434748" stroke-width="0.25" stroke-linejoin="round"/>
<path data-part="fan-cover" d="M342.50,-410.53 L352.50,-414.13 L352.84,-419.96 L342.84,-416.36 Z" fill="#303435" stroke="#303435" stroke-width="0.25" stroke-linejoin="round"/>
<path data-part="fan-cover" d="M331.17,-449.58 L341.17,-453.18 L337.25,-457.53 L327.25,-453.93 Z" fill="#424647" stroke="#424647" stroke-width="0.25" stroke-linejoin="round"/>
<path data-part="fan-cover" d="M342.84,-416.36 L352.84,-419.96 L352.50,-425.88 L342.50,-422.28 Z" fill="#343839" stroke="#343839" stroke-width="0.25" stroke-linejoin="round"/>
<path data-part="fan-cover" d="M334.60,-444.74 L344.60,-448.34 L341.17,-453.18 L331.17,-449.58 Z" fill="#414546" stroke="#414546" stroke-width="0.25" stroke-linejoin="round"/>
<path data-part="fan-cover" d="M342.50,-422.28 L352.50,-425.88 L351.48,-431.77 L341.48,-428.17 Z" fill="#373b3c" stroke="#373b3c" stroke-width="0.25" stroke-linejoin="round"/>
<path data-part="fan-cover" d="M337.50,-439.50 L347.50,-443.10 L344.60,-448.34 L334.60,-444.74 Z" fill="#3f4344" stroke="#3f4344" stroke-width="0.25" stroke-linejoin="round"/>
<path data-part="fan-cover" d="M341.48,-428.17 L351.48,-431.77 L349.80,-437.55 L339.80,-433.94 Z" fill="#3a3e3f" stroke="#3a3e3f" stroke-width="0.25" stroke-linejoin="round"/>
<path data-part="fan-cover" d="M339.80,-433.94 L349.80,-437.55 L347.50,-443.10 L337.50,-439.50 Z" fill="#3c4041" stroke="#3c4041" stroke-width="0.25" stroke-linejoin="round"/>
<path data-part="motor-fin" d="M230.47,-443.89 L285.47,-463.70 L284.21,-463.27 L229.21,-443.46 Z" fill="#7b8385" stroke="#282f33" stroke-width="0.45" stroke-linejoin="round"/>
<path data-part="terminal-box" d="M247.35,-471.17 L290.65,-465.97 L312.15,-473.71 L268.85,-478.91 Z" fill="#697174" stroke="#454d50" stroke-width="0.65" stroke-linejoin="round"/>
<path data-part="foot" d="M295.83,-86.06 L333.93,-81.48 L362.93,-91.93 L324.83,-96.50 Z" fill="#626b6f" stroke="#454d50" stroke-width="0.65" stroke-linejoin="round"/>
<path data-part="motor-fin" d="M261.18,-357.20 L316.18,-377.01 L317.41,-377.50 L262.41,-357.70 Z" fill="#7b8385" stroke="#282f33" stroke-width="0.45" stroke-linejoin="round"/>
<path data-part="motor" d="M253.08,-356.40 L318.08,-379.81 L322.55,-381.76 L257.55,-358.36 Z" fill="#292d2e" stroke="#292d2e" stroke-width="0.25" stroke-linejoin="round"/>
<path data-part="motor" d="M228.64,-440.67 L293.64,-464.08 L288.92,-462.84 L223.92,-439.43 Z" fill="#3e4243" stroke="#3e4243" stroke-width="0.25" stroke-linejoin="round"/>
<path data-part="leveling-bolt" d="M318.82,-109.62 L330.94,-108.16 L339.94,-111.40 L327.82,-112.86 Z" fill="#bec6c8" stroke="#454d50" stroke-width="0.65" stroke-linejoin="round"/>
<path data-part="leveling-bolt" d="M330.94,-86.64 L339.94,-89.88 L339.94,-111.40 L330.94,-108.16 Z" fill="#899297" stroke="#454d50" stroke-width="0.65" stroke-linejoin="round"/>
<path data-part="motor" d="M257.55,-358.36 L322.55,-381.76 L326.70,-384.39 L261.70,-360.99 Z" fill="#292d2e" stroke="#292d2e" stroke-width="0.25" stroke-linejoin="round"/>
<path data-part="motor" d="M233.53,-441.18 L298.53,-464.59 L293.64,-464.08 L228.64,-440.67 Z" fill="#404445" stroke="#404445" stroke-width="0.25" stroke-linejoin="round"/>
<path data-part="motor-fin" d="M242.46,-445.47 L297.46,-465.27 L296.11,-465.31 L241.11,-445.50 Z" fill="#7b8385" stroke="#282f33" stroke-width="0.45" stroke-linejoin="round"/>
<path data-part="motor-fin" d="M271.51,-363.49 L326.51,-383.29 L327.50,-384.21 L272.50,-364.40 Z" fill="#7b8385" stroke="#282f33" stroke-width="0.45" stroke-linejoin="round"/>
<path data-part="motor" d="M261.70,-360.99 L326.70,-384.39 L330.44,-387.66 L265.44,-364.25 Z" fill="#292d2e" stroke="#292d2e" stroke-width="0.25" stroke-linejoin="round"/>
<path data-part="motor" d="M238.50,-440.95 L303.50,-464.36 L298.53,-464.59 L233.53,-441.18 Z" fill="#414546" stroke="#414546" stroke-width="0.25" stroke-linejoin="round"/>
<path data-part="terminal-box" d="M290.65,-444.45 L312.15,-452.19 L312.15,-473.71 L290.65,-465.97 Z" fill="#41494d" stroke="#454d50" stroke-width="0.65" stroke-linejoin="round"/>
<path data-part="leveling-bolt" d="M318.82,-88.10 L330.94,-86.64 L330.94,-108.16 L318.82,-109.62 Z" fill="#7b8488" stroke="#454d50" stroke-width="0.65" stroke-linejoin="round"/>
<path data-part="support-bracket" d="M311.49,-134.49 L332.27,-131.99 L347.27,-137.40 L326.49,-139.89 Z" fill="#5b6468" stroke="#454d50" stroke-width="0.65" stroke-linejoin="round"/>
<path data-part="foot" d="M333.93,-76.59 L362.93,-87.04 L362.93,-91.93 L333.93,-81.48 Z" fill="#41494c" stroke="#454d50" stroke-width="0.65" stroke-linejoin="round"/>
<path data-part="motor" d="M265.44,-364.25 L330.44,-387.66 L333.73,-391.49 L268.73,-368.09 Z" fill="#292d2e" stroke="#292d2e" stroke-width="0.25" stroke-linejoin="round"/>
<path data-part="motor" d="M243.47,-439.99 L308.47,-463.40 L303.50,-464.36 L238.50,-440.95 Z" fill="#434748" stroke="#434748" stroke-width="0.25" stroke-linejoin="round"/>
<path data-part="support-bracket" d="M332.27,-101.67 L347.27,-107.07 L347.27,-137.40 L332.27,-131.99 Z" fill="#424a4e" stroke="#454d50" stroke-width="0.65" stroke-linejoin="round"/>
<path data-part="motor-fin" d="M254.70,-442.73 L309.70,-462.54 L308.38,-463.05 L253.38,-443.24 Z" fill="#7b8385" stroke="#282f33" stroke-width="0.45" stroke-linejoin="round"/>
<path data-part="motor-fin" d="M279.31,-373.27 L334.31,-393.08 L334.98,-394.33 L279.98,-374.52 Z" fill="#7b8385" stroke="#282f33" stroke-width="0.45" stroke-linejoin="round"/>
<path data-part="motor" d="M268.73,-368.09 L333.73,-391.49 L336.50,-395.84 L271.50,-372.44 Z" fill="#292d2e" stroke="#292d2e" stroke-width="0.25" stroke-linejoin="round"/>
<path data-part="motor" d="M248.36,-438.30 L313.36,-461.71 L308.47,-463.40 L243.47,-439.99 Z" fill="#434748" stroke="#434748" stroke-width="0.25" stroke-linejoin="round"/>
<path data-part="terminal-box" d="M247.35,-449.65 L290.65,-444.45 L290.65,-465.97 L247.35,-471.17 Z" fill="#343b3e" stroke="#454d50" stroke-width="0.65" stroke-linejoin="round"/>
<path data-part="motor-mount" d="M164.37,-354.96 L259.63,-343.53 L350.63,-376.30 L255.37,-387.74 Z" fill="#5b6468" stroke="#454d50" stroke-width="0.65" stroke-linejoin="round"/>
<path data-part="motor" d="M271.50,-372.44 L336.50,-395.84 L338.70,-400.63 L273.70,-377.22 Z" fill="#292d2e" stroke="#292d2e" stroke-width="0.25" stroke-linejoin="round"/>
<path data-part="motor" d="M253.08,-435.93 L318.08,-459.34 L313.36,-461.71 L248.36,-438.30 Z" fill="#444849" stroke="#444849" stroke-width="0.25" stroke-linejoin="round"/>
<path data-part="motor-fin" d="M266.01,-435.96 L321.01,-455.77 L319.85,-456.69 L264.85,-436.89 Z" fill="#7b8385" stroke="#282f33" stroke-width="0.45" stroke-linejoin="round"/>
<path data-part="motor" d="M273.70,-377.22 L338.70,-400.63 L340.31,-405.77 L275.31,-382.36 Z" fill="#292d2e" stroke="#292d2e" stroke-width="0.25" stroke-linejoin="round"/>
<path data-part="motor-fin" d="M283.85,-385.62 L338.85,-405.43 L339.12,-406.89 L284.12,-387.09 Z" fill="#7b8385" stroke="#282f33" stroke-width="0.45" stroke-linejoin="round"/>
<path data-part="support-bracket" d="M311.49,-104.17 L332.27,-101.67 L332.27,-131.99 L311.49,-134.49 Z" fill="#343b3e" stroke="#454d50" stroke-width="0.65" stroke-linejoin="round"/>
<path data-part="motor" d="M257.55,-432.90 L322.55,-456.31 L318.08,-459.34 L253.08,-435.93 Z" fill="#444849" stroke="#444849" stroke-width="0.25" stroke-linejoin="round"/>
<path data-part="motor" d="M275.31,-382.36 L340.31,-405.77 L341.28,-411.17 L276.28,-387.76 Z" fill="#2d3132" stroke="#2d3132" stroke-width="0.25" stroke-linejoin="round"/>
<path data-part="motor" d="M261.70,-429.28 L326.70,-452.68 L322.55,-456.31 L257.55,-432.90 Z" fill="#434748" stroke="#434748" stroke-width="0.25" stroke-linejoin="round"/>
<path data-part="motor-fin" d="M275.33,-425.79 L330.33,-445.60 L329.43,-446.86 L274.43,-427.05 Z" fill="#7b8385" stroke="#282f33" stroke-width="0.45" stroke-linejoin="round"/>
<path data-part="motor-fin" d="M284.69,-399.37 L339.69,-419.17 L339.55,-420.71 L284.55,-400.91 Z" fill="#7b8385" stroke="#282f33" stroke-width="0.45" stroke-linejoin="round"/>
<path data-part="motor" d="M276.28,-387.76 L341.28,-411.17 L341.61,-416.75 L276.61,-393.34 Z" fill="#303435" stroke="#303435" stroke-width="0.25" stroke-linejoin="round"/>
<path data-part="motor" d="M265.44,-425.11 L330.44,-448.52 L326.70,-452.68 L261.70,-429.28 Z" fill="#424647" stroke="#424647" stroke-width="0.25" stroke-linejoin="round"/>
<path data-part="motor-fin" d="M281.76,-413.20 L336.76,-433.00 L336.21,-434.47 L281.21,-414.66 Z" fill="#7b8385" stroke="#282f33" stroke-width="0.45" stroke-linejoin="round"/>
<path data-part="motor" d="M276.61,-393.34 L341.61,-416.75 L341.28,-422.41 L276.28,-399.00 Z" fill="#343839" stroke="#343839" stroke-width="0.25" stroke-linejoin="round"/>
<path data-part="motor" d="M268.73,-420.49 L333.73,-443.89 L330.44,-448.52 L265.44,-425.11 Z" fill="#414546" stroke="#414546" stroke-width="0.25" stroke-linejoin="round"/>
<path data-part="foot" d="M295.83,-81.17 L333.93,-76.59 L333.93,-81.48 L295.83,-86.06 Z" fill="#343a3d" stroke="#454d50" stroke-width="0.65" stroke-linejoin="round"/>
<path data-part="motor" d="M276.28,-399.00 L341.28,-422.41 L340.31,-428.04 L275.31,-404.64 Z" fill="#373b3c" stroke="#373b3c" stroke-width="0.25" stroke-linejoin="round"/>
<path data-part="motor" d="M271.50,-415.47 L336.50,-438.88 L333.73,-443.89 L268.73,-420.49 Z" fill="#3f4344" stroke="#3f4344" stroke-width="0.25" stroke-linejoin="round"/>
<path data-part="motor" d="M275.31,-404.64 L340.31,-428.04 L338.70,-433.57 L273.70,-410.16 Z" fill="#3a3e3f" stroke="#3a3e3f" stroke-width="0.25" stroke-linejoin="round"/>
<path data-part="motor" d="M273.70,-410.16 L338.70,-433.57 L336.50,-438.88 L271.50,-415.47 Z" fill="#3c4041" stroke="#3c4041" stroke-width="0.25" stroke-linejoin="round"/>
<path data-part="motor-mount" d="M259.63,-335.70 L350.63,-368.47 L350.63,-376.30 L259.63,-343.53 Z" fill="#424a4e" stroke="#454d50" stroke-width="0.65" stroke-linejoin="round"/>
<path data-part="motor" d="M276.58,-393.33 L276.40,-397.57 L275.85,-401.82 L274.94,-406.02 L273.68,-410.15 L272.08,-414.16 L270.16,-418.01 L267.93,-421.67 L265.42,-425.11 L262.65,-428.27 L259.65,-431.15 L256.44,-433.71 L253.06,-435.92 L249.54,-437.76 L245.91,-439.23 L242.21,-440.29 L238.47,-440.95 L234.74,-441.19 L231.04,-441.01 L227.41,-440.42 L223.89,-439.42 L220.51,-438.02 L217.30,-436.23 L214.30,-434.08 L211.53,-431.57 L209.02,-428.75 L206.79,-425.62 L204.87,-422.23 L203.27,-418.60 L202.01,-414.78 L201.10,-410.79 L200.55,-406.68 L200.37,-402.48 L200.55,-398.24 L201.10,-394.00 L202.01,-389.79 L203.27,-385.66 L204.87,-381.65 L206.79,-377.80 L209.02,-374.14 L211.53,-370.71 L214.30,-367.54 L217.30,-364.66 L220.51,-362.11 L223.89,-359.90 L227.41,-358.05 L231.04,-356.59 L234.74,-355.52 L238.47,-354.87 L242.21,-354.63 L245.91,-354.80 L249.54,-355.39 L253.06,-356.39 L256.44,-357.79 L259.65,-359.58 L262.65,-361.74 L265.42,-364.24 L267.93,-367.07 L270.16,-370.19 L272.08,-373.59 L273.68,-377.21 L274.94,-381.04 L275.85,-385.02 L276.40,-389.14 Z" fill="url(#extruder-30-drive)" stroke="#454d50" stroke-width="0.65" stroke-linejoin="round"/>
<path data-part="gearbox" d="M165.56,-414.52 L250.44,-404.34 L285.94,-417.12 L201.06,-427.31 Z" fill="#61696b" stroke="#454d50" stroke-width="0.65" stroke-linejoin="round"/>
<path data-part="gearbox-bolt" d="M181.92,-358.71 L181.91,-359.00 L181.87,-359.29 L181.81,-359.58 L181.72,-359.86 L181.61,-360.13 L181.48,-360.40 L181.33,-360.65 L181.16,-360.88 L180.97,-361.10 L180.76,-361.29 L180.55,-361.47 L180.32,-361.62 L180.08,-361.74 L179.83,-361.84 L179.58,-361.92 L179.32,-361.96 L179.07,-361.98 L178.81,-361.97 L178.57,-361.93 L178.33,-361.86 L178.10,-361.76 L177.88,-361.64 L177.67,-361.49 L177.48,-361.32 L177.31,-361.13 L177.16,-360.92 L177.03,-360.68 L176.92,-360.44 L176.83,-360.18 L176.77,-359.90 L176.74,-359.62 L176.72,-359.34 L176.74,-359.05 L176.77,-358.76 L176.83,-358.47 L176.92,-358.19 L177.03,-357.92 L177.16,-357.66 L177.31,-357.41 L177.48,-357.17 L177.67,-356.96 L177.88,-356.76 L178.10,-356.59 L178.33,-356.43 L178.57,-356.31 L178.81,-356.21 L179.07,-356.14 L179.32,-356.09 L179.58,-356.08 L179.83,-356.09 L180.08,-356.13 L180.32,-356.20 L180.55,-356.29 L180.76,-356.41 L180.97,-356.56 L181.16,-356.73 L181.33,-356.92 L181.48,-357.14 L181.61,-357.37 L181.72,-357.62 L181.81,-357.88 L181.87,-358.15 L181.91,-358.43 Z" fill="#aeb7b9" stroke="#454d50" stroke-width="0.65" stroke-linejoin="round"/>
<path data-part="motor-mount" d="M164.37,-347.14 L259.63,-335.70 L259.63,-343.53 L164.37,-354.96 Z" fill="#343b3e" stroke="#454d50" stroke-width="0.65" stroke-linejoin="round"/>
<path data-part="gearbox-bolt" d="M181.92,-399.80 L181.91,-400.09 L181.87,-400.38 L181.81,-400.66 L181.72,-400.94 L181.61,-401.22 L181.48,-401.48 L181.33,-401.73 L181.16,-401.96 L180.97,-402.18 L180.76,-402.38 L180.55,-402.55 L180.32,-402.70 L180.08,-402.83 L179.83,-402.93 L179.58,-403.00 L179.32,-403.04 L179.07,-403.06 L178.81,-403.05 L178.57,-403.01 L178.33,-402.94 L178.10,-402.84 L177.88,-402.72 L177.67,-402.57 L177.48,-402.40 L177.31,-402.21 L177.16,-402.00 L177.03,-401.77 L176.92,-401.52 L176.83,-401.26 L176.77,-400.99 L176.74,-400.71 L176.72,-400.42 L176.74,-400.13 L176.77,-399.84 L176.83,-399.56 L176.92,-399.27 L177.03,-399.00 L177.16,-398.74 L177.31,-398.49 L177.48,-398.25 L177.67,-398.04 L177.88,-397.84 L178.10,-397.67 L178.33,-397.52 L178.57,-397.39 L178.81,-397.29 L179.07,-397.22 L179.32,-397.17 L179.58,-397.16 L179.83,-397.17 L180.08,-397.21 L180.32,-397.28 L180.55,-397.37 L180.76,-397.50 L180.97,-397.64 L181.16,-397.81 L181.33,-398.01 L181.48,-398.22 L181.61,-398.45 L181.72,-398.70 L181.81,-398.96 L181.87,-399.23 L181.91,-399.51 Z" fill="#aeb7b9" stroke="#454d50" stroke-width="0.65" stroke-linejoin="round"/>
<path data-part="gearbox" d="M250.44,-335.87 L285.94,-348.65 L285.94,-417.12 L250.44,-404.34 Z" fill="#3f474b" stroke="#454d50" stroke-width="0.65" stroke-linejoin="round"/>
<path data-part="gearbox" d="M165.56,-346.05 L250.44,-335.87 L250.44,-404.34 L165.56,-414.52 Z" fill="#30383c" stroke="#454d50" stroke-width="0.65" stroke-linejoin="round"/>
<path data-part="gearbox-cover" d="M211.29,-356.91 L215.29,-358.35 L217.53,-359.33 L213.53,-357.89 Z" fill="#292d2e" stroke="#292d2e" stroke-width="0.25" stroke-linejoin="round"/>
<path data-part="gearbox-cover" d="M199.07,-399.05 L203.07,-400.49 L200.71,-399.86 L196.71,-398.42 Z" fill="#3e4243" stroke="#3e4243" stroke-width="0.25" stroke-linejoin="round"/>
<path data-part="gearbox-cover" d="M213.53,-357.89 L217.53,-359.33 L219.60,-360.64 L215.60,-359.20 Z" fill="#292d2e" stroke="#292d2e" stroke-width="0.25" stroke-linejoin="round"/>
<path data-part="gearbox-cover" d="M201.51,-399.30 L205.51,-400.74 L203.07,-400.49 L199.07,-399.05 Z" fill="#404445" stroke="#404445" stroke-width="0.25" stroke-linejoin="round"/>
<path data-part="gearbox-cover" d="M223.03,-375.37 L222.94,-377.49 L222.66,-379.61 L222.21,-381.72 L221.58,-383.78 L220.78,-385.79 L219.82,-387.71 L218.70,-389.54 L217.45,-391.26 L216.06,-392.84 L214.56,-394.28 L212.96,-395.56 L211.27,-396.66 L209.51,-397.59 L207.69,-398.32 L205.84,-398.85 L203.97,-399.18 L202.11,-399.30 L200.26,-399.21 L198.44,-398.91 L196.68,-398.41 L194.99,-397.71 L193.39,-396.82 L191.89,-395.74 L190.50,-394.49 L189.25,-393.08 L188.13,-391.52 L187.17,-389.82 L186.37,-388.01 L185.74,-386.09 L185.29,-384.10 L185.01,-382.04 L184.92,-379.95 L185.01,-377.82 L185.29,-375.70 L185.74,-373.60 L186.37,-371.54 L187.17,-369.53 L188.13,-367.60 L189.25,-365.77 L190.50,-364.06 L191.89,-362.47 L193.39,-361.04 L194.99,-359.76 L196.68,-358.65 L198.44,-357.73 L200.26,-357.00 L202.11,-356.47 L203.97,-356.14 L205.84,-356.02 L207.69,-356.11 L209.51,-356.40 L211.27,-356.90 L212.96,-357.60 L214.56,-358.49 L216.06,-359.57 L217.45,-360.82 L218.70,-362.24 L219.82,-363.80 L220.78,-365.50 L221.58,-367.31 L222.21,-369.22 L222.66,-371.22 L222.94,-373.27 Z" fill="url(#extruder-30-drive)" stroke="#454d50" stroke-width="0.65" stroke-linejoin="round"/>
<path data-part="gearbox-cover" d="M215.60,-359.20 L219.60,-360.64 L221.47,-362.27 L217.47,-360.83 Z" fill="#292d2e" stroke="#292d2e" stroke-width="0.25" stroke-linejoin="round"/>
<path data-part="gearbox-cover" d="M204.00,-399.19 L208.00,-400.63 L205.51,-400.74 L201.51,-399.30 Z" fill="#414546" stroke="#414546" stroke-width="0.25" stroke-linejoin="round"/>
<path data-part="gearbox-cover" d="M217.47,-360.83 L221.47,-362.27 L223.12,-364.19 L219.12,-362.75 Z" fill="#292d2e" stroke="#292d2e" stroke-width="0.25" stroke-linejoin="round"/>
<path data-part="gearbox-cover" d="M206.49,-398.70 L210.49,-400.14 L208.00,-400.63 L204.00,-399.19 Z" fill="#434748" stroke="#434748" stroke-width="0.25" stroke-linejoin="round"/>
<path data-part="gearbox-cover" d="M219.12,-362.75 L223.12,-364.19 L224.50,-366.37 L220.50,-364.93 Z" fill="#292d2e" stroke="#292d2e" stroke-width="0.25" stroke-linejoin="round"/>
<path data-part="gearbox-cover" d="M208.93,-397.86 L212.93,-399.30 L210.49,-400.14 L206.49,-398.70 Z" fill="#434748" stroke="#434748" stroke-width="0.25" stroke-linejoin="round"/>
<path data-part="gearbox-cover" d="M220.50,-364.93 L224.50,-366.37 L225.60,-368.76 L221.60,-367.32 Z" fill="#292d2e" stroke="#292d2e" stroke-width="0.25" stroke-linejoin="round"/>
<path data-part="gearbox-cover" d="M211.29,-396.67 L215.29,-398.11 L212.93,-399.30 L208.93,-397.86 Z" fill="#444849" stroke="#444849" stroke-width="0.25" stroke-linejoin="round"/>
<path data-part="gearbox-bolt" d="M239.08,-351.85 L239.06,-352.14 L239.03,-352.43 L238.97,-352.72 L238.88,-353.00 L238.77,-353.27 L238.64,-353.54 L238.49,-353.79 L238.32,-354.02 L238.13,-354.24 L237.92,-354.43 L237.70,-354.61 L237.47,-354.76 L237.23,-354.88 L236.99,-354.98 L236.73,-355.06 L236.48,-355.10 L236.22,-355.12 L235.97,-355.10 L235.72,-355.06 L235.48,-355.00 L235.25,-354.90 L235.04,-354.78 L234.83,-354.63 L234.64,-354.46 L234.47,-354.27 L234.32,-354.06 L234.19,-353.82 L234.08,-353.58 L233.99,-353.32 L233.93,-353.04 L233.89,-352.76 L233.88,-352.48 L233.89,-352.19 L233.93,-351.90 L233.99,-351.61 L234.08,-351.33 L234.19,-351.06 L234.32,-350.79 L234.47,-350.54 L234.64,-350.31 L234.83,-350.09 L235.04,-349.90 L235.25,-349.72 L235.48,-349.57 L235.72,-349.45 L235.97,-349.35 L236.22,-349.28 L236.48,-349.23 L236.73,-349.21 L236.99,-349.23 L237.23,-349.27 L237.47,-349.34 L237.70,-349.43 L237.92,-349.55 L238.13,-349.70 L238.32,-349.87 L238.49,-350.06 L238.64,-350.28 L238.77,-350.51 L238.88,-350.75 L238.97,-351.02 L239.03,-351.29 L239.06,-351.57 Z" fill="#aeb7b9" stroke="#454d50" stroke-width="0.65" stroke-linejoin="round"/>
<path data-part="gearbox-cover" d="M221.60,-367.32 L225.60,-368.76 L226.40,-371.33 L222.40,-369.89 Z" fill="#292d2e" stroke="#292d2e" stroke-width="0.25" stroke-linejoin="round"/>
<path data-part="gearbox-cover" d="M213.53,-395.16 L217.53,-396.60 L215.29,-398.11 L211.29,-396.67 Z" fill="#444849" stroke="#444849" stroke-width="0.25" stroke-linejoin="round"/>
<path data-part="gearbox-cover" d="M222.40,-369.89 L226.40,-371.33 L226.89,-374.03 L222.89,-372.59 Z" fill="#2d3132" stroke="#2d3132" stroke-width="0.25" stroke-linejoin="round"/>
<path data-part="gearbox-cover" d="M215.60,-393.35 L219.60,-394.79 L217.53,-396.60 L213.53,-395.16 Z" fill="#434748" stroke="#434748" stroke-width="0.25" stroke-linejoin="round"/>
<path data-part="gearbox-cover" d="M222.89,-372.59 L226.89,-374.03 L227.05,-376.82 L223.05,-375.38 Z" fill="#303435" stroke="#303435" stroke-width="0.25" stroke-linejoin="round"/>
<path data-part="gearbox-cover" d="M217.47,-391.27 L221.47,-392.71 L219.60,-394.79 L215.60,-393.35 Z" fill="#424647" stroke="#424647" stroke-width="0.25" stroke-linejoin="round"/>
<path data-part="gearbox-cover" d="M223.05,-375.38 L227.05,-376.82 L226.89,-379.65 L222.89,-378.21 Z" fill="#343839" stroke="#343839" stroke-width="0.25" stroke-linejoin="round"/>
<path data-part="gearbox-cover" d="M219.12,-388.95 L223.12,-390.39 L221.47,-392.71 L217.47,-391.27 Z" fill="#414546" stroke="#414546" stroke-width="0.25" stroke-linejoin="round"/>
<path data-part="gearbox-cover" d="M222.89,-378.21 L226.89,-379.65 L226.40,-382.47 L222.40,-381.03 Z" fill="#373b3c" stroke="#373b3c" stroke-width="0.25" stroke-linejoin="round"/>
<path data-part="gearbox-cover" d="M220.50,-386.45 L224.50,-387.89 L223.12,-390.39 L219.12,-388.95 Z" fill="#3f4344" stroke="#3f4344" stroke-width="0.25" stroke-linejoin="round"/>
<path data-part="gearbox-cover" d="M222.40,-381.03 L226.40,-382.47 L225.60,-385.23 L221.60,-383.79 Z" fill="#3a3e3f" stroke="#3a3e3f" stroke-width="0.25" stroke-linejoin="round"/>
<path data-part="gearbox-cover" d="M221.60,-383.79 L225.60,-385.23 L224.50,-387.89 L220.50,-386.45 Z" fill="#3c4041" stroke="#3c4041" stroke-width="0.25" stroke-linejoin="round"/>
<path data-part="feed-neck" d="M161.75,-362.36 L210.25,-356.54 L229.75,-363.56 L181.25,-369.38 Z" fill="#d8dedd" stroke="#454d50" stroke-width="0.65" stroke-linejoin="round"/>
<path data-part="feed-flange" d="M152.69,-368.85 L213.31,-361.58 L238.81,-370.76 L178.19,-378.04 Z" fill="#edf0ed" stroke="#454d50" stroke-width="0.65" stroke-linejoin="round"/>
<path data-part="gearbox-bolt" d="M239.08,-392.94 L239.06,-393.22 L239.03,-393.51 L238.97,-393.80 L238.88,-394.08 L238.77,-394.36 L238.64,-394.62 L238.49,-394.87 L238.32,-395.10 L238.13,-395.32 L237.92,-395.51 L237.70,-395.69 L237.47,-395.84 L237.23,-395.97 L236.99,-396.06 L236.73,-396.14 L236.48,-396.18 L236.22,-396.20 L235.97,-396.19 L235.72,-396.15 L235.48,-396.08 L235.25,-395.98 L235.04,-395.86 L234.83,-395.71 L234.64,-395.54 L234.47,-395.35 L234.32,-395.14 L234.19,-394.91 L234.08,-394.66 L233.99,-394.40 L233.93,-394.13 L233.89,-393.85 L233.88,-393.56 L233.89,-393.27 L233.93,-392.98 L233.99,-392.69 L234.08,-392.41 L234.19,-392.14 L234.32,-391.88 L234.47,-391.63 L234.64,-391.39 L234.83,-391.18 L235.04,-390.98 L235.25,-390.81 L235.48,-390.66 L235.72,-390.53 L235.97,-390.43 L236.22,-390.36 L236.48,-390.31 L236.73,-390.30 L236.99,-390.31 L237.23,-390.35 L237.47,-390.42 L237.70,-390.51 L237.92,-390.63 L238.13,-390.78 L238.32,-390.95 L238.49,-391.14 L238.64,-391.36 L238.77,-391.59 L238.88,-391.84 L238.97,-392.10 L239.03,-392.37 L239.06,-392.65 Z" fill="#aeb7b9" stroke="#454d50" stroke-width="0.65" stroke-linejoin="round"/>
<path data-part="feed-bolt" d="M159.52,-373.15 L164.72,-372.52 L168.22,-373.78 L163.02,-374.41 Z" fill="#d8dfdf" stroke="#454d50" stroke-width="0.65" stroke-linejoin="round"/>
<path data-part="feed-bolt" d="M164.72,-368.61 L168.22,-369.87 L168.22,-373.78 L164.72,-372.52 Z" fill="#8f9b9e" stroke="#454d50" stroke-width="0.65" stroke-linejoin="round"/>
<path data-part="feed-bolt" d="M159.52,-369.23 L164.72,-368.61 L164.72,-372.52 L159.52,-373.15 Z" fill="#6c797d" stroke="#454d50" stroke-width="0.65" stroke-linejoin="round"/>
<path data-part="feed-neck" d="M210.25,-328.17 L229.75,-335.19 L229.75,-363.56 L210.25,-356.54 Z" fill="#a3adaf" stroke="#454d50" stroke-width="0.65" stroke-linejoin="round"/>
<path data-part="feed-neck" d="M161.75,-333.99 L210.25,-328.17 L210.25,-356.54 L161.75,-362.36 Z" fill="#879194" stroke="#454d50" stroke-width="0.65" stroke-linejoin="round"/>
<path data-part="feed-flange" d="M213.31,-354.73 L238.81,-363.91 L238.81,-370.76 L213.31,-361.58 Z" fill="#bbc3c4" stroke="#454d50" stroke-width="0.65" stroke-linejoin="round"/>
<path data-part="base" d="M-64.09,-78.12 L64.09,-62.73 L378.09,-175.81 L249.91,-191.20 Z" fill="#5b6468" stroke="#454d50" stroke-width="0.65" stroke-linejoin="round"/>
<path data-part="housing-gasket" d="M-56.89,-88.98 L60.89,-74.84 L369.39,-185.93 L251.61,-200.07 Z" fill="#3a4246" stroke="#454d50" stroke-width="0.65" stroke-linejoin="round"/>
<path data-part="feed-flange" d="M152.69,-362.01 L213.31,-354.73 L213.31,-361.58 L152.69,-368.85 Z" fill="#929da0" stroke="#454d50" stroke-width="0.65" stroke-linejoin="round"/>
<path data-part="feed-bolt" d="M206.28,-367.53 L211.48,-366.91 L214.98,-368.17 L209.78,-368.79 Z" fill="#d8dfdf" stroke="#454d50" stroke-width="0.65" stroke-linejoin="round"/>
<path data-part="feed-bolt" d="M211.48,-363.00 L214.98,-364.26 L214.98,-368.17 L211.48,-366.91 Z" fill="#8f9b9e" stroke="#454d50" stroke-width="0.65" stroke-linejoin="round"/>
<path data-part="feed-bolt" d="M206.28,-363.62 L211.48,-363.00 L211.48,-366.91 L206.28,-367.53 Z" fill="#6c797d" stroke="#454d50" stroke-width="0.65" stroke-linejoin="round"/>
<path data-part="base" d="M64.09,-7.96 L378.09,-121.03 L378.09,-175.81 L64.09,-62.73 Z" fill="#424a4e" stroke="#454d50" stroke-width="0.65" stroke-linejoin="round"/>
<path data-part="housing-gasket" d="M60.89,-64.08 L369.39,-175.17 L369.39,-185.93 L60.89,-74.84 Z" fill="#232b2f" stroke="#454d50" stroke-width="0.65" stroke-linejoin="round"/>
<path data-part="housing" d="M-64.95,-271.90 L64.95,-256.30 L374.95,-367.94 L245.05,-383.53 Z" fill="url(#extruder-30-lid)" stroke="#454d50" stroke-width="0.65" stroke-linejoin="round"/>
<path data-part="housing" d="M64.95,-73.39 L374.95,-185.02 L374.95,-367.94 L64.95,-256.30 Z" fill="#e8ebea" stroke="#454d50" stroke-width="0.65" stroke-linejoin="round"/>
<path data-part="foot" d="M-57.93,-27.69 L-19.83,-23.12 L9.17,-33.56 L-28.93,-38.13 Z" fill="#626b6f" stroke="#454d50" stroke-width="0.65" stroke-linejoin="round"/>
<path data-part="leveling-bolt" d="M-34.94,-51.25 L-22.82,-49.80 L-13.82,-53.04 L-25.94,-54.49 Z" fill="#bec6c8" stroke="#454d50" stroke-width="0.65" stroke-linejoin="round"/>
<path data-part="leveling-bolt" d="M-22.82,-28.28 L-13.82,-31.52 L-13.82,-53.04 L-22.82,-49.80 Z" fill="#899297" stroke="#454d50" stroke-width="0.65" stroke-linejoin="round"/>
<path data-part="leveling-bolt" d="M-34.94,-29.73 L-22.82,-28.28 L-22.82,-49.80 L-34.94,-51.25 Z" fill="#7b8488" stroke="#454d50" stroke-width="0.65" stroke-linejoin="round"/>
<path data-part="support-bracket" d="M-42.27,-76.12 L-21.49,-73.63 L-6.49,-79.03 L-27.27,-81.52 Z" fill="#5b6468" stroke="#454d50" stroke-width="0.65" stroke-linejoin="round"/>
<path data-part="foot" d="M-19.83,-18.23 L9.17,-28.67 L9.17,-33.56 L-19.83,-23.12 Z" fill="#41494c" stroke="#454d50" stroke-width="0.65" stroke-linejoin="round"/>
<path data-part="support-bracket" d="M-21.49,-43.30 L-6.49,-48.71 L-6.49,-79.03 L-21.49,-73.63 Z" fill="#424a4e" stroke="#454d50" stroke-width="0.65" stroke-linejoin="round"/>
<path data-part="support-bracket" d="M-42.27,-45.80 L-21.49,-43.30 L-21.49,-73.63 L-42.27,-76.12 Z" fill="#343b3e" stroke="#454d50" stroke-width="0.65" stroke-linejoin="round"/>
<path data-part="foot" d="M-57.93,-22.80 L-19.83,-18.23 L-19.83,-23.12 L-57.93,-27.69 Z" fill="#343a3d" stroke="#454d50" stroke-width="0.65" stroke-linejoin="round"/>
<path data-part="foot" d="M85.83,-10.43 L123.93,-5.86 L152.93,-16.30 L114.83,-20.88 Z" fill="#626b6f" stroke="#454d50" stroke-width="0.65" stroke-linejoin="round"/>
<path data-part="leveling-bolt" d="M108.82,-33.99 L120.94,-32.54 L129.94,-35.78 L117.82,-37.24 Z" fill="#bec6c8" stroke="#454d50" stroke-width="0.65" stroke-linejoin="round"/>
<path data-part="leveling-bolt" d="M120.94,-11.02 L129.94,-14.26 L129.94,-35.78 L120.94,-32.54 Z" fill="#899297" stroke="#454d50" stroke-width="0.65" stroke-linejoin="round"/>
<path data-part="leveling-bolt" d="M108.82,-12.47 L120.94,-11.02 L120.94,-32.54 L108.82,-33.99 Z" fill="#7b8488" stroke="#454d50" stroke-width="0.65" stroke-linejoin="round"/>
<path data-part="support-bracket" d="M101.49,-58.87 L122.27,-56.37 L137.27,-61.77 L116.49,-64.27 Z" fill="#5b6468" stroke="#454d50" stroke-width="0.65" stroke-linejoin="round"/>
<path data-part="foot" d="M123.93,-0.97 L152.93,-11.41 L152.93,-16.30 L123.93,-5.86 Z" fill="#41494c" stroke="#454d50" stroke-width="0.65" stroke-linejoin="round"/>
<path data-part="support-bracket" d="M122.27,-26.05 L137.27,-31.45 L137.27,-61.77 L122.27,-56.37 Z" fill="#424a4e" stroke="#454d50" stroke-width="0.65" stroke-linejoin="round"/>
<path data-part="support-bracket" d="M101.49,-28.54 L122.27,-26.05 L122.27,-56.37 L101.49,-58.87 Z" fill="#343b3e" stroke="#454d50" stroke-width="0.65" stroke-linejoin="round"/>
<path data-part="foot" d="M85.83,-5.54 L123.93,-0.97 L123.93,-5.86 L85.83,-10.43 Z" fill="#343a3d" stroke="#454d50" stroke-width="0.65" stroke-linejoin="round"/>
<path data-part="base" d="M-64.09,-23.34 L64.09,-7.96 L64.09,-62.73 L-64.09,-78.12 Z" fill="#343b3e" stroke="#454d50" stroke-width="0.65" stroke-linejoin="round"/>
<path data-part="housing-gasket" d="M-56.89,-78.22 L60.89,-64.08 L60.89,-74.84 L-56.89,-88.98 Z" fill="#171e22" stroke="#454d50" stroke-width="0.65" stroke-linejoin="round"/>
<path data-part="housing" d="M-64.95,-88.98 L64.95,-73.39 L64.95,-256.30 L-64.95,-271.90 Z" fill="url(#extruder-30-end)" stroke="#454d50" stroke-width="0.65" stroke-linejoin="round"/>
<path data-part="outlet-boss" d="M11.90,-118.32 L16.85,-120.11 L22.03,-122.37 L17.08,-120.59 Z" fill="#292d2e" stroke="#292d2e" stroke-width="0.25" stroke-linejoin="round"/>
<path data-part="outlet-boss" d="M-16.43,-216.00 L-11.48,-217.78 L-16.95,-216.34 L-21.90,-214.56 Z" fill="#3e4243" stroke="#3e4243" stroke-width="0.25" stroke-linejoin="round"/>
<path data-part="outlet-boss" d="M39.14,-161.13 L38.93,-166.05 L38.29,-170.96 L37.24,-175.84 L35.78,-180.62 L33.93,-185.27 L31.70,-189.74 L29.12,-193.98 L26.21,-197.96 L22.99,-201.63 L19.51,-204.96 L15.80,-207.93 L11.88,-210.49 L7.80,-212.63 L3.59,-214.32 L-0.70,-215.56 L-5.02,-216.32 L-9.35,-216.60 L-13.64,-216.39 L-17.85,-215.71 L-21.93,-214.55 L-25.85,-212.93 L-29.56,-210.86 L-33.04,-208.36 L-36.26,-205.46 L-39.17,-202.18 L-41.75,-198.55 L-43.98,-194.62 L-45.83,-190.42 L-47.29,-185.99 L-48.34,-181.36 L-48.98,-176.60 L-49.19,-171.73 L-48.98,-166.82 L-48.34,-161.90 L-47.29,-157.02 L-45.83,-152.24 L-43.98,-147.59 L-41.75,-143.13 L-39.17,-138.88 L-36.26,-134.91 L-33.04,-131.23 L-29.56,-127.90 L-25.85,-124.94 L-21.93,-122.37 L-17.85,-120.23 L-13.64,-118.54 L-9.35,-117.31 L-5.03,-116.55 L-0.70,-116.27 L3.59,-116.47 L7.80,-117.16 L11.88,-118.31 L15.80,-119.94 L19.51,-122.01 L22.99,-124.51 L26.21,-127.41 L29.12,-130.69 L31.70,-134.31 L33.93,-138.24 L35.78,-142.44 L37.24,-146.88 L38.29,-151.50 L38.93,-156.27 Z" fill="url(#extruder-30-drive)" stroke="#454d50" stroke-width="0.65" stroke-linejoin="round"/>
<path data-part="outlet-boss" d="M17.08,-120.59 L22.03,-122.37 L26.84,-125.42 L21.89,-123.64 Z" fill="#292d2e" stroke="#292d2e" stroke-width="0.25" stroke-linejoin="round"/>
<path data-part="outlet-boss" d="M-10.76,-216.59 L-5.81,-218.37 L-11.48,-217.78 L-16.43,-216.00 Z" fill="#404445" stroke="#404445" stroke-width="0.25" stroke-linejoin="round"/>
<path data-part="outlet-boss" d="M21.89,-123.64 L26.84,-125.42 L31.18,-129.20 L26.23,-127.42 Z" fill="#292d2e" stroke="#292d2e" stroke-width="0.25" stroke-linejoin="round"/>
<path data-part="outlet-boss" d="M-5.00,-216.33 L-0.05,-218.11 L-5.81,-218.37 L-10.76,-216.59 Z" fill="#414546" stroke="#414546" stroke-width="0.25" stroke-linejoin="round"/>
<path data-part="outlet-flange" d="M2.91,-121.46 L9.81,-123.95 L14.39,-125.95 L7.49,-123.46 Z" fill="#707475" stroke="#707475" stroke-width="0.25" stroke-linejoin="round"/>
<path data-part="outlet-boss" d="M26.23,-127.42 L31.18,-129.20 L34.99,-133.65 L30.04,-131.87 Z" fill="#292d2e" stroke="#292d2e" stroke-width="0.25" stroke-linejoin="round"/>
<path data-part="outlet-flange" d="M-22.09,-207.65 L-15.19,-210.13 L-20.01,-208.86 L-26.91,-206.38 Z" fill="#aeb2b3" stroke="#aeb2b3" stroke-width="0.25" stroke-linejoin="round"/>
<path data-part="outlet-boss" d="M0.76,-215.21 L5.71,-216.99 L-0.05,-218.11 L-5.00,-216.33 Z" fill="#434748" stroke="#434748" stroke-width="0.25" stroke-linejoin="round"/>
<path data-part="outlet-flange" d="M7.49,-123.46 L14.39,-125.95 L18.62,-128.64 L11.72,-126.15 Z" fill="#707475" stroke="#707475" stroke-width="0.25" stroke-linejoin="round"/>
<path data-part="outlet-boss" d="M30.04,-131.87 L34.99,-133.65 L38.20,-138.69 L33.25,-136.91 Z" fill="#292d2e" stroke="#292d2e" stroke-width="0.25" stroke-linejoin="round"/>
<path data-part="outlet-flange" d="M-17.09,-208.17 L-10.19,-210.66 L-15.19,-210.13 L-22.09,-207.65 Z" fill="#b4b8b9" stroke="#b4b8b9" stroke-width="0.25" stroke-linejoin="round"/>
<path data-part="outlet-boss" d="M6.43,-213.25 L11.38,-215.04 L5.71,-216.99 L0.76,-215.21 Z" fill="#434748" stroke="#434748" stroke-width="0.25" stroke-linejoin="round"/>
<path data-part="outlet-flange" d="M26.95,-159.23 L26.76,-163.57 L26.20,-167.91 L25.27,-172.21 L23.98,-176.43 L22.34,-180.53 L20.38,-184.48 L18.10,-188.22 L15.53,-191.73 L12.70,-194.97 L9.63,-197.91 L6.35,-200.53 L2.89,-202.79 L-0.71,-204.67 L-4.42,-206.17 L-8.21,-207.26 L-12.02,-207.93 L-15.84,-208.17 L-19.63,-207.99 L-23.34,-207.39 L-26.94,-206.37 L-30.40,-204.94 L-33.68,-203.11 L-36.75,-200.90 L-39.58,-198.34 L-42.15,-195.45 L-44.43,-192.25 L-46.39,-188.79 L-48.03,-185.08 L-49.32,-181.16 L-50.25,-177.09 L-50.81,-172.88 L-51.00,-168.59 L-50.81,-164.25 L-50.25,-159.91 L-49.32,-155.61 L-48.03,-151.39 L-46.39,-147.29 L-44.43,-143.35 L-42.15,-139.60 L-39.58,-136.09 L-36.75,-132.85 L-33.68,-129.91 L-30.40,-127.30 L-26.94,-125.04 L-23.34,-123.15 L-19.63,-121.65 L-15.84,-120.56 L-12.03,-119.89 L-8.21,-119.65 L-4.42,-119.83 L-0.71,-120.43 L2.89,-121.45 L6.35,-122.89 L9.63,-124.71 L12.70,-126.92 L15.53,-129.48 L18.10,-132.37 L20.38,-135.57 L22.34,-139.04 L23.98,-142.74 L25.27,-146.66 L26.20,-150.74 L26.76,-154.94 Z" fill="url(#extruder-30-metal)" stroke="#454d50" stroke-width="0.65" stroke-linejoin="round"/>
<path data-part="outlet-boss" d="M33.25,-136.91 L38.20,-138.69 L40.76,-144.23 L35.81,-142.45 Z" fill="#292d2e" stroke="#292d2e" stroke-width="0.25" stroke-linejoin="round"/>
<path data-part="outlet-flange" d="M11.72,-126.15 L18.62,-128.64 L22.46,-131.97 L15.56,-129.49 Z" fill="#707475" stroke="#707475" stroke-width="0.25" stroke-linejoin="round"/>
<path data-part="outlet-boss" d="M11.90,-210.50 L16.85,-212.28 L11.38,-215.04 L6.43,-213.25 Z" fill="#444849" stroke="#444849" stroke-width="0.25" stroke-linejoin="round"/>
<path data-part="outlet-flange" d="M-12.00,-207.94 L-5.10,-210.42 L-10.19,-210.66 L-17.09,-208.17 Z" fill="#b9bdbe" stroke="#b9bdbe" stroke-width="0.25" stroke-linejoin="round"/>
<path data-part="outlet-boss" d="M35.81,-142.45 L40.76,-144.23 L42.61,-150.19 L37.66,-148.41 Z" fill="#292d2e" stroke="#292d2e" stroke-width="0.25" stroke-linejoin="round"/>
<path data-part="outlet-boss" d="M17.08,-206.99 L22.03,-208.77 L16.85,-212.28 L11.90,-210.50 Z" fill="#444849" stroke="#444849" stroke-width="0.25" stroke-linejoin="round"/>
<path data-part="outlet-flange" d="M15.56,-129.49 L22.46,-131.97 L25.82,-135.90 L18.92,-133.41 Z" fill="#707475" stroke="#707475" stroke-width="0.25" stroke-linejoin="round"/>
<path data-part="outlet-flange" d="M-6.91,-206.95 L-0.01,-209.43 L-5.10,-210.42 L-12.00,-207.94 Z" fill="#bdc1c2" stroke="#bdc1c2" stroke-width="0.25" stroke-linejoin="round"/>
<path data-part="outlet-boss" d="M37.66,-148.41 L42.61,-150.19 L43.74,-156.46 L38.79,-154.67 Z" fill="#2d3132" stroke="#2d3132" stroke-width="0.25" stroke-linejoin="round"/>
<path data-part="outlet-boss" d="M21.89,-202.79 L26.84,-204.57 L22.03,-208.77 L17.08,-206.99 Z" fill="#434748" stroke="#434748" stroke-width="0.25" stroke-linejoin="round"/>
<path data-part="outlet-flange" d="M18.92,-133.41 L25.82,-135.90 L28.65,-140.35 L21.75,-137.86 Z" fill="#707475" stroke="#707475" stroke-width="0.25" stroke-linejoin="round"/>
<path data-part="outlet-flange" d="M-1.91,-205.23 L4.99,-207.71 L-0.01,-209.43 L-6.91,-206.95 Z" fill="#c0c4c5" stroke="#c0c4c5" stroke-width="0.25" stroke-linejoin="round"/>
<path data-part="outlet-boss" d="M38.79,-154.67 L43.74,-156.46 L44.12,-162.92 L39.17,-161.14 Z" fill="#303435" stroke="#303435" stroke-width="0.25" stroke-linejoin="round"/>
<path data-part="outlet-boss" d="M26.23,-197.97 L31.18,-199.75 L26.84,-204.57 L21.89,-202.79 Z" fill="#424647" stroke="#424647" stroke-width="0.25" stroke-linejoin="round"/>
<path data-part="outlet-boss" d="M39.17,-161.14 L44.12,-162.92 L43.74,-169.48 L38.79,-167.70 Z" fill="#343839" stroke="#343839" stroke-width="0.25" stroke-linejoin="round"/>
<path data-part="outlet-boss" d="M30.04,-192.60 L34.99,-194.39 L31.18,-199.75 L26.23,-197.97 Z" fill="#414546" stroke="#414546" stroke-width="0.25" stroke-linejoin="round"/>
<path data-part="outlet-flange" d="M21.75,-137.86 L28.65,-140.35 L30.90,-145.24 L24.00,-142.75 Z" fill="#707475" stroke="#707475" stroke-width="0.25" stroke-linejoin="round"/>
<path data-part="outlet-flange" d="M2.91,-202.80 L9.81,-205.28 L4.99,-207.71 L-1.91,-205.23 Z" fill="#c1c5c6" stroke="#c1c5c6" stroke-width="0.25" stroke-linejoin="round"/>
<path data-part="outlet-boss" d="M38.79,-167.70 L43.74,-169.48 L42.61,-176.01 L37.66,-174.23 Z" fill="#373b3c" stroke="#373b3c" stroke-width="0.25" stroke-linejoin="round"/>
<path data-part="outlet-boss" d="M33.25,-186.79 L38.20,-188.57 L34.99,-194.39 L30.04,-192.60 Z" fill="#3f4344" stroke="#3f4344" stroke-width="0.25" stroke-linejoin="round"/>
<path data-part="outlet-boss" d="M37.66,-174.23 L42.61,-176.01 L40.76,-182.42 L35.81,-180.63 Z" fill="#3a3e3f" stroke="#3a3e3f" stroke-width="0.25" stroke-linejoin="round"/>
<path data-part="outlet-boss" d="M35.81,-180.63 L40.76,-182.42 L38.20,-188.57 L33.25,-186.79 Z" fill="#3c4041" stroke="#3c4041" stroke-width="0.25" stroke-linejoin="round"/>
<path data-part="outlet-flange" d="M24.00,-142.75 L30.90,-145.24 L32.54,-150.49 L25.64,-148.01 Z" fill="#727677" stroke="#727677" stroke-width="0.25" stroke-linejoin="round"/>
<path data-part="outlet-flange" d="M7.49,-199.70 L14.39,-202.19 L9.81,-205.28 L2.91,-202.80 Z" fill="#c0c4c5" stroke="#c0c4c5" stroke-width="0.25" stroke-linejoin="round"/>
<path data-part="outlet-flange" d="M25.64,-148.01 L32.54,-150.49 L33.54,-156.02 L26.64,-153.54 Z" fill="#7d8182" stroke="#7d8182" stroke-width="0.25" stroke-linejoin="round"/>
<path data-part="outlet-flange" d="M11.72,-195.99 L18.62,-198.48 L14.39,-202.19 L7.49,-199.70 Z" fill="#bfc3c4" stroke="#bfc3c4" stroke-width="0.25" stroke-linejoin="round"/>
<path data-part="outlet-flange" d="M26.64,-153.54 L33.54,-156.02 L33.87,-161.73 L26.97,-159.24 Z" fill="#878b8c" stroke="#878b8c" stroke-width="0.25" stroke-linejoin="round"/>
<path data-part="outlet-flange" d="M15.56,-191.74 L22.46,-194.22 L18.62,-198.48 L11.72,-195.99 Z" fill="#bbbfc0" stroke="#bbbfc0" stroke-width="0.25" stroke-linejoin="round"/>
<path data-part="outlet-flange" d="M26.97,-159.24 L33.87,-161.73 L33.54,-167.51 L26.64,-165.03 Z" fill="#919596" stroke="#919596" stroke-width="0.25" stroke-linejoin="round"/>
<path data-part="outlet-flange" d="M18.92,-187.00 L25.82,-189.49 L22.46,-194.22 L15.56,-191.74 Z" fill="#b7bbbc" stroke="#b7bbbc" stroke-width="0.25" stroke-linejoin="round"/>
<path data-part="outlet-flange" d="M26.64,-165.03 L33.54,-167.51 L32.54,-173.28 L25.64,-170.79 Z" fill="#9a9e9f" stroke="#9a9e9f" stroke-width="0.25" stroke-linejoin="round"/>
<path data-part="outlet-flange" d="M21.75,-181.88 L28.65,-184.36 L25.82,-189.49 L18.92,-187.00 Z" fill="#b1b5b6" stroke="#b1b5b6" stroke-width="0.25" stroke-linejoin="round"/>
<path data-part="outlet-flange" d="M25.64,-170.79 L32.54,-173.28 L30.90,-178.93 L24.00,-176.44 Z" fill="#a3a7a8" stroke="#a3a7a8" stroke-width="0.25" stroke-linejoin="round"/>
<path data-part="outlet-flange" d="M24.00,-176.44 L30.90,-178.93 L28.65,-184.36 L21.75,-181.88 Z" fill="#abafb0" stroke="#abafb0" stroke-width="0.25" stroke-linejoin="round"/>
<path data-part="panel-seam" d="M303.63,-173.93 L304.38,-174.20 L304.38,-329.72 L303.63,-329.45 Z" fill="#c3caca" stroke="#c3caca" stroke-width="0" stroke-linejoin="round"/>
<path data-part="lower-fold" d="M68.04,-75.44 L374.04,-185.63 L374.04,-192.48 L68.04,-82.28 Z" fill="#cbd1d1" stroke="#cbd1d1" stroke-width="0.65" stroke-linejoin="round"/>
<path data-part="vent-inset" d="M-34.36,-275.62 L64.36,-263.77 L226.86,-322.29 L128.14,-334.14 Z" fill="#c1c9ca" stroke="#a8b2b5" stroke-width="0.8" stroke-linejoin="round"/>
<path data-part="vent-lip" d="M129.60,-333.30 L221.40,-322.28 L222.40,-322.64 L130.60,-333.66 Z" fill="#e4e8e7" stroke="#e4e8e7" stroke-width="0" stroke-linejoin="round"/>
<path data-part="vent-slot" d="M127.60,-332.48 L219.40,-321.46 L221.40,-322.18 L129.60,-333.20 Z" fill="#727e82" stroke="#727e82" stroke-width="0" stroke-linejoin="round"/>
<path data-part="vent-lip" d="M122.60,-330.78 L214.40,-319.76 L215.40,-320.12 L123.60,-331.14 Z" fill="#e4e8e7" stroke="#e4e8e7" stroke-width="0" stroke-linejoin="round"/>
<path data-part="vent-slot" d="M120.60,-329.96 L212.40,-318.94 L214.40,-319.66 L122.60,-330.68 Z" fill="#727e82" stroke="#727e82" stroke-width="0" stroke-linejoin="round"/>
<path data-part="vent-lip" d="M115.60,-328.26 L207.40,-317.24 L208.40,-317.60 L116.60,-328.62 Z" fill="#e4e8e7" stroke="#e4e8e7" stroke-width="0" stroke-linejoin="round"/>
<path data-part="vent-slot" d="M113.60,-327.44 L205.40,-316.42 L207.40,-317.14 L115.60,-328.16 Z" fill="#727e82" stroke="#727e82" stroke-width="0" stroke-linejoin="round"/>
<path data-part="vent-lip" d="M108.60,-325.74 L200.40,-314.72 L201.40,-315.08 L109.60,-326.10 Z" fill="#e4e8e7" stroke="#e4e8e7" stroke-width="0" stroke-linejoin="round"/>
<path data-part="vent-slot" d="M106.60,-324.92 L198.40,-313.90 L200.40,-314.62 L108.60,-325.64 Z" fill="#727e82" stroke="#727e82" stroke-width="0" stroke-linejoin="round"/>
<path data-part="vent-lip" d="M101.60,-323.22 L193.40,-312.20 L194.40,-312.56 L102.60,-323.58 Z" fill="#e4e8e7" stroke="#e4e8e7" stroke-width="0" stroke-linejoin="round"/>
<path data-part="vent-slot" d="M99.60,-322.40 L191.40,-311.38 L193.40,-312.10 L101.60,-323.12 Z" fill="#727e82" stroke="#727e82" stroke-width="0" stroke-linejoin="round"/>
<path data-part="vent-lip" d="M94.60,-320.69 L186.40,-309.68 L187.40,-310.04 L95.60,-321.05 Z" fill="#e4e8e7" stroke="#e4e8e7" stroke-width="0" stroke-linejoin="round"/>
<path data-part="vent-slot" d="M92.60,-319.88 L184.40,-308.86 L186.40,-309.58 L94.60,-320.60 Z" fill="#727e82" stroke="#727e82" stroke-width="0" stroke-linejoin="round"/>
<path data-part="vent-lip" d="M87.60,-318.17 L179.40,-307.15 L180.40,-307.51 L88.60,-318.53 Z" fill="#e4e8e7" stroke="#e4e8e7" stroke-width="0" stroke-linejoin="round"/>
<path data-part="vent-slot" d="M85.60,-317.36 L177.40,-306.34 L179.40,-307.06 L87.60,-318.08 Z" fill="#727e82" stroke="#727e82" stroke-width="0" stroke-linejoin="round"/>
<path data-part="vent-lip" d="M80.60,-315.65 L172.40,-304.63 L173.40,-304.99 L81.60,-316.01 Z" fill="#e4e8e7" stroke="#e4e8e7" stroke-width="0" stroke-linejoin="round"/>
<path data-part="vent-slot" d="M78.60,-314.83 L170.40,-303.82 L172.40,-304.54 L80.60,-315.56 Z" fill="#727e82" stroke="#727e82" stroke-width="0" stroke-linejoin="round"/>
<path data-part="vent-lip" d="M73.60,-313.13 L165.40,-302.11 L166.40,-302.47 L74.60,-313.49 Z" fill="#e4e8e7" stroke="#e4e8e7" stroke-width="0" stroke-linejoin="round"/>
<path data-part="vent-slot" d="M71.60,-312.31 L163.40,-301.29 L165.40,-302.02 L73.60,-313.03 Z" fill="#727e82" stroke="#727e82" stroke-width="0" stroke-linejoin="round"/>
<path data-part="vent-lip" d="M66.60,-310.61 L158.40,-299.59 L159.40,-299.95 L67.60,-310.97 Z" fill="#e4e8e7" stroke="#e4e8e7" stroke-width="0" stroke-linejoin="round"/>
<path data-part="vent-slot" d="M64.60,-309.79 L156.40,-298.77 L158.40,-299.49 L66.60,-310.51 Z" fill="#727e82" stroke="#727e82" stroke-width="0" stroke-linejoin="round"/>
<path data-part="vent-lip" d="M59.60,-308.09 L151.40,-297.07 L152.40,-297.43 L60.60,-308.45 Z" fill="#e4e8e7" stroke="#e4e8e7" stroke-width="0" stroke-linejoin="round"/>
<path data-part="vent-slot" d="M57.60,-307.27 L149.40,-296.25 L151.40,-296.97 L59.60,-307.99 Z" fill="#727e82" stroke="#727e82" stroke-width="0" stroke-linejoin="round"/>
<path data-part="vent-lip" d="M52.60,-305.57 L144.40,-294.55 L145.40,-294.91 L53.60,-305.93 Z" fill="#e4e8e7" stroke="#e4e8e7" stroke-width="0" stroke-linejoin="round"/>
<path data-part="vent-slot" d="M50.60,-304.75 L142.40,-293.73 L144.40,-294.45 L52.60,-305.47 Z" fill="#727e82" stroke="#727e82" stroke-width="0" stroke-linejoin="round"/>
<path data-part="vent-lip" d="M45.60,-303.05 L137.40,-292.03 L138.40,-292.39 L46.60,-303.41 Z" fill="#e4e8e7" stroke="#e4e8e7" stroke-width="0" stroke-linejoin="round"/>
<path data-part="vent-slot" d="M43.60,-302.23 L135.40,-291.21 L137.40,-291.93 L45.60,-302.95 Z" fill="#727e82" stroke="#727e82" stroke-width="0" stroke-linejoin="round"/>
<path data-part="vent-lip" d="M38.60,-300.53 L130.40,-289.51 L131.40,-289.87 L39.60,-300.89 Z" fill="#e4e8e7" stroke="#e4e8e7" stroke-width="0" stroke-linejoin="round"/>
<path data-part="vent-slot" d="M36.60,-299.71 L128.40,-288.69 L130.40,-289.41 L38.60,-300.43 Z" fill="#727e82" stroke="#727e82" stroke-width="0" stroke-linejoin="round"/>
<path data-part="vent-lip" d="M31.60,-298.01 L123.40,-286.99 L124.40,-287.35 L32.60,-298.37 Z" fill="#e4e8e7" stroke="#e4e8e7" stroke-width="0" stroke-linejoin="round"/>
<path data-part="vent-slot" d="M29.60,-297.19 L121.40,-286.17 L123.40,-286.89 L31.60,-297.91 Z" fill="#727e82" stroke="#727e82" stroke-width="0" stroke-linejoin="round"/>
<path data-part="vent-lip" d="M24.60,-295.49 L116.40,-284.47 L117.40,-284.83 L25.60,-295.85 Z" fill="#e4e8e7" stroke="#e4e8e7" stroke-width="0" stroke-linejoin="round"/>
<path data-part="vent-slot" d="M22.60,-294.67 L114.40,-283.65 L116.40,-284.37 L24.60,-295.39 Z" fill="#727e82" stroke="#727e82" stroke-width="0" stroke-linejoin="round"/>
<path data-part="vent-lip" d="M17.60,-292.97 L109.40,-281.95 L110.40,-282.31 L18.60,-293.33 Z" fill="#e4e8e7" stroke="#e4e8e7" stroke-width="0" stroke-linejoin="round"/>
<path data-part="vent-slot" d="M15.60,-292.15 L107.40,-281.13 L109.40,-281.85 L17.60,-292.87 Z" fill="#727e82" stroke="#727e82" stroke-width="0" stroke-linejoin="round"/>
<path data-part="vent-lip" d="M10.60,-290.45 L102.40,-279.43 L103.40,-279.79 L11.60,-290.81 Z" fill="#e4e8e7" stroke="#e4e8e7" stroke-width="0" stroke-linejoin="round"/>
<path data-part="vent-slot" d="M8.60,-289.63 L100.40,-278.61 L102.40,-279.33 L10.60,-290.35 Z" fill="#727e82" stroke="#727e82" stroke-width="0" stroke-linejoin="round"/>
<path data-part="vent-lip" d="M3.60,-287.92 L95.40,-276.90 L96.40,-277.27 L4.60,-288.28 Z" fill="#e4e8e7" stroke="#e4e8e7" stroke-width="0" stroke-linejoin="round"/>
<path data-part="vent-slot" d="M1.60,-287.11 L93.40,-276.09 L95.40,-276.81 L3.60,-287.83 Z" fill="#727e82" stroke="#727e82" stroke-width="0" stroke-linejoin="round"/>
<path data-part="vent-lip" d="M-3.40,-285.40 L88.40,-274.38 L89.40,-274.74 L-2.40,-285.76 Z" fill="#e4e8e7" stroke="#e4e8e7" stroke-width="0" stroke-linejoin="round"/>
<path data-part="vent-slot" d="M-5.40,-284.59 L86.40,-273.57 L88.40,-274.29 L-3.40,-285.31 Z" fill="#727e82" stroke="#727e82" stroke-width="0" stroke-linejoin="round"/>
<path data-part="end-panel-bolt" d="M-51.63,-102.99 L-51.64,-103.23 L-51.67,-103.47 L-51.72,-103.71 L-51.79,-103.94 L-51.88,-104.17 L-51.99,-104.39 L-52.12,-104.60 L-52.26,-104.79 L-52.42,-104.97 L-52.59,-105.13 L-52.77,-105.28 L-52.97,-105.41 L-53.17,-105.51 L-53.37,-105.59 L-53.58,-105.65 L-53.79,-105.69 L-54.01,-105.70 L-54.22,-105.69 L-54.42,-105.66 L-54.62,-105.60 L-54.81,-105.52 L-55.00,-105.42 L-55.17,-105.30 L-55.32,-105.16 L-55.47,-105.00 L-55.59,-104.82 L-55.70,-104.63 L-55.79,-104.42 L-55.87,-104.20 L-55.92,-103.98 L-55.95,-103.74 L-55.96,-103.51 L-55.95,-103.26 L-55.92,-103.02 L-55.87,-102.78 L-55.79,-102.55 L-55.70,-102.32 L-55.59,-102.10 L-55.47,-101.90 L-55.32,-101.70 L-55.17,-101.52 L-55.00,-101.36 L-54.81,-101.21 L-54.62,-101.09 L-54.42,-100.98 L-54.22,-100.90 L-54.01,-100.84 L-53.79,-100.80 L-53.58,-100.79 L-53.37,-100.80 L-53.17,-100.83 L-52.97,-100.89 L-52.77,-100.97 L-52.59,-101.07 L-52.42,-101.19 L-52.26,-101.33 L-52.12,-101.49 L-51.99,-101.67 L-51.88,-101.86 L-51.79,-102.07 L-51.72,-102.29 L-51.67,-102.51 L-51.64,-102.75 Z" fill="#7c888c" stroke="#232c31" stroke-width="0.65" stroke-linejoin="round"/>
<path data-part="vent-lip" d="M-10.40,-282.88 L81.40,-271.86 L82.40,-272.22 L-9.40,-283.24 Z" fill="#e4e8e7" stroke="#e4e8e7" stroke-width="0" stroke-linejoin="round"/>
<path data-part="vent-slot" d="M-12.40,-282.06 L79.40,-271.05 L81.40,-271.77 L-10.40,-282.78 Z" fill="#727e82" stroke="#727e82" stroke-width="0" stroke-linejoin="round"/>
<path data-part="vent-lip" d="M-17.40,-280.36 L74.40,-269.34 L75.40,-269.70 L-16.40,-280.72 Z" fill="#e4e8e7" stroke="#e4e8e7" stroke-width="0" stroke-linejoin="round"/>
<path data-part="vent-slot" d="M-19.40,-279.54 L72.40,-268.52 L74.40,-269.24 L-17.40,-280.26 Z" fill="#727e82" stroke="#727e82" stroke-width="0" stroke-linejoin="round"/>
<path data-part="vent-lip" d="M-24.40,-277.84 L67.40,-266.82 L68.40,-267.18 L-23.40,-278.20 Z" fill="#e4e8e7" stroke="#e4e8e7" stroke-width="0" stroke-linejoin="round"/>
<path data-part="vent-slot" d="M-26.40,-277.02 L65.40,-266.00 L67.40,-266.72 L-24.40,-277.74 Z" fill="#727e82" stroke="#727e82" stroke-width="0" stroke-linejoin="round"/>
<path data-part="end-panel-bolt" d="M-51.63,-254.60 L-51.64,-254.84 L-51.67,-255.08 L-51.72,-255.32 L-51.79,-255.55 L-51.88,-255.78 L-51.99,-256.00 L-52.12,-256.21 L-52.26,-256.40 L-52.42,-256.58 L-52.59,-256.75 L-52.77,-256.89 L-52.97,-257.02 L-53.17,-257.12 L-53.37,-257.21 L-53.58,-257.27 L-53.79,-257.30 L-54.01,-257.32 L-54.22,-257.31 L-54.42,-257.27 L-54.62,-257.22 L-54.81,-257.14 L-55.00,-257.04 L-55.17,-256.91 L-55.32,-256.77 L-55.47,-256.61 L-55.59,-256.43 L-55.70,-256.24 L-55.79,-256.03 L-55.87,-255.82 L-55.92,-255.59 L-55.95,-255.36 L-55.96,-255.12 L-55.95,-254.88 L-55.92,-254.64 L-55.87,-254.40 L-55.79,-254.16 L-55.70,-253.94 L-55.59,-253.72 L-55.47,-253.51 L-55.32,-253.31 L-55.17,-253.13 L-55.00,-252.97 L-54.81,-252.82 L-54.62,-252.70 L-54.42,-252.59 L-54.22,-252.51 L-54.01,-252.45 L-53.79,-252.41 L-53.58,-252.40 L-53.37,-252.41 L-53.17,-252.44 L-52.97,-252.50 L-52.77,-252.58 L-52.59,-252.68 L-52.42,-252.80 L-52.26,-252.95 L-52.12,-253.11 L-51.99,-253.28 L-51.88,-253.48 L-51.79,-253.68 L-51.72,-253.90 L-51.67,-254.13 L-51.64,-254.36 Z" fill="#7c888c" stroke="#232c31" stroke-width="0.65" stroke-linejoin="round"/>
<path data-part="end-panel-bolt" d="M55.76,-90.10 L55.75,-90.34 L55.72,-90.58 L55.67,-90.82 L55.59,-91.05 L55.50,-91.28 L55.39,-91.50 L55.27,-91.71 L55.12,-91.90 L54.97,-92.08 L54.80,-92.24 L54.61,-92.39 L54.42,-92.52 L54.22,-92.62 L54.02,-92.70 L53.81,-92.76 L53.59,-92.80 L53.38,-92.81 L53.17,-92.80 L52.97,-92.77 L52.77,-92.71 L52.57,-92.63 L52.39,-92.53 L52.22,-92.41 L52.06,-92.27 L51.92,-92.11 L51.79,-91.93 L51.68,-91.74 L51.59,-91.53 L51.52,-91.31 L51.47,-91.09 L51.44,-90.85 L51.43,-90.62 L51.44,-90.37 L51.47,-90.13 L51.52,-89.89 L51.59,-89.66 L51.68,-89.43 L51.79,-89.21 L51.92,-89.00 L52.06,-88.81 L52.22,-88.63 L52.39,-88.47 L52.57,-88.32 L52.77,-88.20 L52.97,-88.09 L53.17,-88.01 L53.38,-87.95 L53.59,-87.91 L53.81,-87.90 L54.02,-87.91 L54.22,-87.94 L54.42,-88.00 L54.61,-88.08 L54.80,-88.18 L54.97,-88.30 L55.12,-88.44 L55.27,-88.60 L55.39,-88.78 L55.50,-88.97 L55.59,-89.18 L55.67,-89.40 L55.72,-89.62 L55.75,-89.86 Z" fill="#7c888c" stroke="#232c31" stroke-width="0.65" stroke-linejoin="round"/>
<path data-part="end-panel-bolt" d="M55.76,-241.71 L55.75,-241.95 L55.72,-242.19 L55.67,-242.43 L55.59,-242.66 L55.50,-242.89 L55.39,-243.11 L55.27,-243.32 L55.12,-243.51 L54.97,-243.69 L54.80,-243.86 L54.61,-244.00 L54.42,-244.13 L54.22,-244.23 L54.02,-244.32 L53.81,-244.38 L53.59,-244.41 L53.38,-244.43 L53.17,-244.42 L52.97,-244.38 L52.77,-244.33 L52.57,-244.25 L52.39,-244.15 L52.22,-244.02 L52.06,-243.88 L51.92,-243.72 L51.79,-243.54 L51.68,-243.35 L51.59,-243.14 L51.52,-242.93 L51.47,-242.70 L51.44,-242.47 L51.43,-242.23 L51.44,-241.99 L51.47,-241.75 L51.52,-241.51 L51.59,-241.27 L51.68,-241.04 L51.79,-240.83 L51.92,-240.62 L52.06,-240.42 L52.22,-240.24 L52.39,-240.08 L52.57,-239.93 L52.77,-239.81 L52.97,-239.70 L53.17,-239.62 L53.38,-239.56 L53.59,-239.52 L53.81,-239.51 L54.02,-239.52 L54.22,-239.55 L54.42,-239.61 L54.61,-239.69 L54.80,-239.79 L54.97,-239.91 L55.12,-240.06 L55.27,-240.22 L55.39,-240.39 L55.50,-240.59 L55.59,-240.79 L55.67,-241.01 L55.72,-241.24 L55.75,-241.47 Z" fill="#7c888c" stroke="#232c31" stroke-width="0.65" stroke-linejoin="round"/>
<path data-part="machined-face" d="M20.81,-159.93 L20.65,-163.60 L20.18,-167.26 L19.39,-170.89 L18.30,-174.46 L16.92,-177.92 L15.26,-181.25 L13.34,-184.41 L11.17,-187.37 L8.78,-190.11 L6.18,-192.59 L3.41,-194.80 L0.49,-196.71 L-2.55,-198.31 L-5.68,-199.57 L-8.87,-200.49 L-12.10,-201.05 L-15.33,-201.26 L-18.52,-201.11 L-21.65,-200.60 L-24.69,-199.74 L-27.61,-198.53 L-30.38,-196.98 L-32.98,-195.12 L-35.37,-192.96 L-37.54,-190.52 L-39.46,-187.82 L-41.12,-184.89 L-42.50,-181.76 L-43.59,-178.45 L-44.38,-175.01 L-44.85,-171.46 L-45.01,-167.83 L-44.85,-164.17 L-44.38,-160.51 L-43.59,-156.87 L-42.50,-153.31 L-41.12,-149.85 L-39.46,-146.52 L-37.54,-143.36 L-35.37,-140.39 L-32.98,-137.66 L-30.38,-135.17 L-27.61,-132.97 L-24.69,-131.06 L-21.65,-129.46 L-18.52,-128.20 L-15.33,-127.28 L-12.10,-126.71 L-8.87,-126.51 L-5.68,-126.66 L-2.55,-127.17 L0.49,-128.03 L3.41,-129.24 L6.18,-130.78 L8.78,-132.65 L11.17,-134.81 L13.34,-137.25 L15.26,-139.95 L16.92,-142.88 L18.30,-146.01 L19.39,-149.31 L20.18,-152.76 L20.65,-156.31 Z" fill="url(#extruder-30-metal)" stroke="#d7dede" stroke-width="0.65" stroke-linejoin="round"/>
<path data-part="outlet-recess" d="M3.39,-161.98 L3.31,-163.71 L3.09,-165.45 L2.72,-167.17 L2.20,-168.86 L1.55,-170.50 L0.76,-172.07 L-0.15,-173.57 L-1.18,-174.97 L-2.31,-176.27 L-3.54,-177.45 L-4.85,-178.49 L-6.23,-179.40 L-7.67,-180.15 L-9.16,-180.75 L-10.67,-181.19 L-12.20,-181.45 L-13.73,-181.55 L-15.24,-181.48 L-16.73,-181.24 L-18.17,-180.83 L-19.55,-180.26 L-20.86,-179.53 L-22.09,-178.65 L-23.22,-177.62 L-24.25,-176.46 L-25.16,-175.19 L-25.95,-173.80 L-26.60,-172.31 L-27.12,-170.75 L-27.49,-169.12 L-27.71,-167.44 L-27.79,-165.72 L-27.71,-163.98 L-27.49,-162.25 L-27.12,-160.53 L-26.60,-158.84 L-25.95,-157.20 L-25.16,-155.62 L-24.25,-154.12 L-23.22,-152.72 L-22.09,-151.42 L-20.86,-150.25 L-19.55,-149.20 L-18.17,-148.30 L-16.73,-147.54 L-15.24,-146.94 L-13.73,-146.51 L-12.20,-146.24 L-10.67,-146.14 L-9.16,-146.21 L-7.67,-146.46 L-6.23,-146.87 L-4.85,-147.44 L-3.54,-148.17 L-2.31,-149.05 L-1.18,-150.08 L-0.15,-151.23 L0.76,-152.51 L1.55,-153.90 L2.20,-155.38 L2.72,-156.95 L3.09,-158.58 L3.31,-160.26 Z" fill="#6a767b" stroke="#a4afb3" stroke-width="0.65" stroke-linejoin="round"/>
<path data-part="flange-bolt-hole" d="M-35.60,-154.21 L-35.61,-154.56 L-35.66,-154.92 L-35.74,-155.28 L-35.84,-155.62 L-35.98,-155.96 L-36.14,-156.28 L-36.33,-156.59 L-36.54,-156.88 L-36.77,-157.15 L-37.02,-157.39 L-37.29,-157.60 L-37.58,-157.79 L-37.87,-157.94 L-38.18,-158.07 L-38.49,-158.16 L-38.80,-158.21 L-39.12,-158.23 L-39.43,-158.22 L-39.73,-158.17 L-40.03,-158.08 L-40.31,-157.97 L-40.58,-157.82 L-40.84,-157.63 L-41.07,-157.42 L-41.28,-157.19 L-41.47,-156.92 L-41.63,-156.64 L-41.76,-156.33 L-41.87,-156.01 L-41.95,-155.68 L-41.99,-155.33 L-42.01,-154.98 L-41.99,-154.62 L-41.95,-154.26 L-41.87,-153.91 L-41.76,-153.56 L-41.63,-153.23 L-41.47,-152.90 L-41.28,-152.59 L-41.07,-152.31 L-40.84,-152.04 L-40.58,-151.80 L-40.31,-151.58 L-40.03,-151.40 L-39.73,-151.24 L-39.43,-151.12 L-39.12,-151.03 L-38.80,-150.97 L-38.49,-150.95 L-38.18,-150.97 L-37.87,-151.02 L-37.58,-151.10 L-37.29,-151.22 L-37.02,-151.37 L-36.77,-151.55 L-36.54,-151.76 L-36.33,-152.00 L-36.14,-152.26 L-35.98,-152.55 L-35.84,-152.85 L-35.74,-153.17 L-35.66,-153.51 L-35.61,-153.86 Z" fill="#445157" stroke="#e7eceb" stroke-width="0.65" stroke-linejoin="round"/>
<path data-part="flange-bolt-hole" d="M-20.13,-134.88 L-20.15,-135.24 L-20.19,-135.60 L-20.27,-135.95 L-20.38,-136.30 L-20.51,-136.63 L-20.67,-136.96 L-20.86,-137.27 L-21.07,-137.55 L-21.30,-137.82 L-21.56,-138.06 L-21.83,-138.28 L-22.11,-138.46 L-22.41,-138.62 L-22.71,-138.74 L-23.02,-138.83 L-23.34,-138.89 L-23.65,-138.91 L-23.96,-138.89 L-24.27,-138.84 L-24.56,-138.76 L-24.85,-138.64 L-25.12,-138.49 L-25.37,-138.31 L-25.60,-138.10 L-25.81,-137.86 L-26.00,-137.60 L-26.16,-137.31 L-26.30,-137.01 L-26.40,-136.69 L-26.48,-136.35 L-26.53,-136.00 L-26.54,-135.65 L-26.53,-135.30 L-26.48,-134.94 L-26.40,-134.58 L-26.30,-134.24 L-26.16,-133.90 L-26.00,-133.58 L-25.81,-133.27 L-25.60,-132.98 L-25.37,-132.71 L-25.12,-132.47 L-24.85,-132.26 L-24.56,-132.07 L-24.27,-131.92 L-23.96,-131.79 L-23.65,-131.70 L-23.34,-131.65 L-23.02,-131.63 L-22.71,-131.64 L-22.41,-131.69 L-22.11,-131.78 L-21.83,-131.89 L-21.56,-132.04 L-21.30,-132.23 L-21.07,-132.44 L-20.86,-132.67 L-20.67,-132.94 L-20.51,-133.22 L-20.38,-133.53 L-20.27,-133.85 L-20.19,-134.18 L-20.15,-134.53 Z" fill="#445157" stroke="#e7eceb" stroke-width="0.65" stroke-linejoin="round"/>
<path data-part="flange-bolt-hole" d="M-35.60,-178.91 L-35.61,-179.27 L-35.66,-179.63 L-35.74,-179.98 L-35.84,-180.33 L-35.98,-180.66 L-36.14,-180.99 L-36.33,-181.30 L-36.54,-181.59 L-36.77,-181.85 L-37.02,-182.09 L-37.29,-182.31 L-37.58,-182.49 L-37.87,-182.65 L-38.18,-182.77 L-38.49,-182.86 L-38.80,-182.92 L-39.12,-182.94 L-39.43,-182.92 L-39.73,-182.87 L-40.03,-182.79 L-40.31,-182.67 L-40.58,-182.52 L-40.84,-182.34 L-41.07,-182.13 L-41.28,-181.89 L-41.47,-181.63 L-41.63,-181.34 L-41.76,-181.04 L-41.87,-180.72 L-41.95,-180.38 L-41.99,-180.04 L-42.01,-179.68 L-41.99,-179.33 L-41.95,-178.97 L-41.87,-178.62 L-41.76,-178.27 L-41.63,-177.93 L-41.47,-177.61 L-41.28,-177.30 L-41.07,-177.01 L-40.84,-176.74 L-40.58,-176.50 L-40.31,-176.29 L-40.03,-176.10 L-39.73,-175.95 L-39.43,-175.82 L-39.12,-175.73 L-38.80,-175.68 L-38.49,-175.66 L-38.18,-175.67 L-37.87,-175.72 L-37.58,-175.81 L-37.29,-175.92 L-37.02,-176.08 L-36.77,-176.26 L-36.54,-176.47 L-36.33,-176.70 L-36.14,-176.97 L-35.98,-177.25 L-35.84,-177.56 L-35.74,-177.88 L-35.66,-178.21 L-35.61,-178.56 Z" fill="#445157" stroke="#e7eceb" stroke-width="0.65" stroke-linejoin="round"/>
<path data-part="outlet-bore" d="M-1.91,-162.56 L-1.96,-163.72 L-2.11,-164.88 L-2.36,-166.03 L-2.70,-167.15 L-3.13,-168.24 L-3.66,-169.30 L-4.27,-170.29 L-4.95,-171.23 L-5.71,-172.09 L-6.53,-172.88 L-7.40,-173.58 L-8.32,-174.18 L-9.28,-174.68 L-10.27,-175.08 L-11.28,-175.37 L-12.30,-175.55 L-13.32,-175.62 L-14.33,-175.57 L-15.32,-175.41 L-16.28,-175.13 L-17.20,-174.75 L-18.07,-174.26 L-18.89,-173.68 L-19.65,-172.99 L-20.33,-172.22 L-20.94,-171.37 L-21.47,-170.45 L-21.90,-169.46 L-22.24,-168.41 L-22.49,-167.33 L-22.64,-166.20 L-22.69,-165.06 L-22.64,-163.90 L-22.49,-162.75 L-22.24,-161.60 L-21.90,-160.47 L-21.47,-159.38 L-20.94,-158.33 L-20.33,-157.33 L-19.65,-156.39 L-18.89,-155.53 L-18.07,-154.75 L-17.20,-154.05 L-16.28,-153.45 L-15.32,-152.94 L-14.33,-152.54 L-13.32,-152.25 L-12.30,-152.07 L-11.28,-152.01 L-10.27,-152.06 L-9.28,-152.22 L-8.32,-152.49 L-7.40,-152.87 L-6.53,-153.36 L-5.71,-153.95 L-4.95,-154.63 L-4.27,-155.40 L-3.66,-156.25 L-3.13,-157.18 L-2.70,-158.17 L-2.36,-159.21 L-2.11,-160.30 L-1.96,-161.42 Z" fill="#11191d" stroke="#303b40" stroke-width="0.65" stroke-linejoin="round"/>
<path data-part="flange-bolt-hole" d="M1.74,-132.26 L1.73,-132.61 L1.68,-132.97 L1.60,-133.32 L1.50,-133.67 L1.36,-134.01 L1.20,-134.33 L1.01,-134.64 L0.80,-134.93 L0.57,-135.20 L0.32,-135.44 L0.05,-135.65 L-0.24,-135.84 L-0.53,-135.99 L-0.84,-136.12 L-1.15,-136.21 L-1.46,-136.26 L-1.78,-136.28 L-2.09,-136.27 L-2.39,-136.22 L-2.69,-136.13 L-2.97,-136.01 L-3.24,-135.86 L-3.50,-135.68 L-3.73,-135.47 L-3.94,-135.23 L-4.13,-134.97 L-4.29,-134.69 L-4.42,-134.38 L-4.53,-134.06 L-4.61,-133.72 L-4.65,-133.38 L-4.67,-133.03 L-4.65,-132.67 L-4.61,-132.31 L-4.53,-131.96 L-4.42,-131.61 L-4.29,-131.27 L-4.13,-130.95 L-3.94,-130.64 L-3.73,-130.35 L-3.50,-130.09 L-3.24,-129.85 L-2.97,-129.63 L-2.69,-129.44 L-2.39,-129.29 L-2.09,-129.17 L-1.78,-129.08 L-1.46,-129.02 L-1.15,-129.00 L-0.84,-129.02 L-0.53,-129.07 L-0.24,-129.15 L0.05,-129.27 L0.32,-129.42 L0.57,-129.60 L0.80,-129.81 L1.01,-130.05 L1.20,-130.31 L1.36,-130.60 L1.50,-130.90 L1.60,-131.22 L1.68,-131.56 L1.73,-131.90 Z" fill="#445157" stroke="#e7eceb" stroke-width="0.65" stroke-linejoin="round"/>
<path data-part="flange-bolt-hole" d="M-20.13,-194.53 L-20.15,-194.88 L-20.19,-195.24 L-20.27,-195.59 L-20.38,-195.94 L-20.51,-196.28 L-20.67,-196.60 L-20.86,-196.91 L-21.07,-197.20 L-21.30,-197.46 L-21.56,-197.71 L-21.83,-197.92 L-22.11,-198.11 L-22.41,-198.26 L-22.71,-198.39 L-23.02,-198.47 L-23.34,-198.53 L-23.65,-198.55 L-23.96,-198.54 L-24.27,-198.49 L-24.56,-198.40 L-24.85,-198.28 L-25.12,-198.13 L-25.37,-197.95 L-25.60,-197.74 L-25.81,-197.50 L-26.00,-197.24 L-26.16,-196.96 L-26.30,-196.65 L-26.40,-196.33 L-26.48,-195.99 L-26.53,-195.65 L-26.54,-195.30 L-26.53,-194.94 L-26.48,-194.58 L-26.40,-194.23 L-26.30,-193.88 L-26.16,-193.54 L-26.00,-193.22 L-25.81,-192.91 L-25.60,-192.62 L-25.37,-192.36 L-25.12,-192.12 L-24.85,-191.90 L-24.56,-191.71 L-24.27,-191.56 L-23.96,-191.44 L-23.65,-191.35 L-23.34,-191.29 L-23.02,-191.27 L-22.71,-191.29 L-22.41,-191.34 L-22.11,-191.42 L-21.83,-191.54 L-21.56,-191.69 L-21.30,-191.87 L-21.07,-192.08 L-20.86,-192.32 L-20.67,-192.58 L-20.51,-192.87 L-20.38,-193.17 L-20.27,-193.49 L-20.19,-193.83 L-20.15,-194.17 Z" fill="#445157" stroke="#e7eceb" stroke-width="0.65" stroke-linejoin="round"/>
<path data-part="flange-bolt-hole" d="M17.21,-147.87 L17.19,-148.23 L17.15,-148.58 L17.07,-148.94 L16.96,-149.28 L16.83,-149.62 L16.67,-149.94 L16.48,-150.25 L16.27,-150.54 L16.04,-150.81 L15.78,-151.05 L15.51,-151.26 L15.23,-151.45 L14.93,-151.61 L14.63,-151.73 L14.32,-151.82 L14.00,-151.87 L13.69,-151.89 L13.38,-151.88 L13.07,-151.83 L12.78,-151.74 L12.49,-151.63 L12.22,-151.48 L11.97,-151.30 L11.74,-151.09 L11.53,-150.85 L11.34,-150.58 L11.18,-150.30 L11.04,-149.99 L10.94,-149.67 L10.86,-149.34 L10.81,-148.99 L10.80,-148.64 L10.81,-148.28 L10.86,-147.93 L10.94,-147.57 L11.04,-147.22 L11.18,-146.89 L11.34,-146.56 L11.53,-146.26 L11.74,-145.97 L11.97,-145.70 L12.22,-145.46 L12.49,-145.24 L12.78,-145.06 L13.07,-144.90 L13.38,-144.78 L13.69,-144.69 L14.00,-144.63 L14.32,-144.61 L14.63,-144.63 L14.93,-144.68 L15.23,-144.76 L15.51,-144.88 L15.78,-145.03 L16.04,-145.21 L16.27,-145.42 L16.48,-145.66 L16.67,-145.92 L16.83,-146.21 L16.96,-146.51 L17.07,-146.84 L17.15,-147.17 L17.19,-147.52 Z" fill="#445157" stroke="#e7eceb" stroke-width="0.65" stroke-linejoin="round"/>
<path data-part="flange-bolt-hole" d="M1.74,-191.90 L1.73,-192.26 L1.68,-192.61 L1.60,-192.97 L1.50,-193.31 L1.36,-193.65 L1.20,-193.98 L1.01,-194.28 L0.80,-194.57 L0.57,-194.84 L0.32,-195.08 L0.05,-195.30 L-0.24,-195.48 L-0.53,-195.64 L-0.84,-195.76 L-1.15,-195.85 L-1.46,-195.90 L-1.78,-195.92 L-2.09,-195.91 L-2.39,-195.86 L-2.69,-195.78 L-2.97,-195.66 L-3.24,-195.51 L-3.50,-195.33 L-3.73,-195.12 L-3.94,-194.88 L-4.13,-194.62 L-4.29,-194.33 L-4.42,-194.03 L-4.53,-193.70 L-4.61,-193.37 L-4.65,-193.02 L-4.67,-192.67 L-4.65,-192.31 L-4.61,-191.96 L-4.53,-191.60 L-4.42,-191.26 L-4.29,-190.92 L-4.13,-190.59 L-3.94,-190.29 L-3.73,-190.00 L-3.50,-189.73 L-3.24,-189.49 L-2.97,-189.27 L-2.69,-189.09 L-2.39,-188.93 L-2.09,-188.81 L-1.78,-188.72 L-1.46,-188.67 L-1.15,-188.65 L-0.84,-188.66 L-0.53,-188.71 L-0.24,-188.79 L0.05,-188.91 L0.32,-189.06 L0.57,-189.24 L0.80,-189.45 L1.01,-189.69 L1.20,-189.95 L1.36,-190.24 L1.50,-190.54 L1.60,-190.87 L1.68,-191.20 L1.73,-191.55 Z" fill="#445157" stroke="#e7eceb" stroke-width="0.65" stroke-linejoin="round"/>
<path data-part="flange-bolt-hole" d="M17.21,-172.57 L17.19,-172.93 L17.15,-173.29 L17.07,-173.64 L16.96,-173.99 L16.83,-174.33 L16.67,-174.65 L16.48,-174.96 L16.27,-175.25 L16.04,-175.51 L15.78,-175.75 L15.51,-175.97 L15.23,-176.16 L14.93,-176.31 L14.63,-176.43 L14.32,-176.52 L14.00,-176.58 L13.69,-176.60 L13.38,-176.58 L13.07,-176.53 L12.78,-176.45 L12.49,-176.33 L12.22,-176.18 L11.97,-176.00 L11.74,-175.79 L11.53,-175.55 L11.34,-175.29 L11.18,-175.00 L11.04,-174.70 L10.94,-174.38 L10.86,-174.04 L10.81,-173.70 L10.80,-173.34 L10.81,-172.99 L10.86,-172.63 L10.94,-172.28 L11.04,-171.93 L11.18,-171.59 L11.34,-171.27 L11.53,-170.96 L11.74,-170.67 L11.97,-170.41 L12.22,-170.16 L12.49,-169.95 L12.78,-169.76 L13.07,-169.61 L13.38,-169.48 L13.69,-169.40 L14.00,-169.34 L14.32,-169.32 L14.63,-169.33 L14.93,-169.38 L15.23,-169.47 L15.51,-169.59 L15.78,-169.74 L16.04,-169.92 L16.27,-170.13 L16.48,-170.37 L16.67,-170.63 L16.83,-170.91 L16.96,-171.22 L17.07,-171.54 L17.15,-171.88 L17.19,-172.22 Z" fill="#445157" stroke="#e7eceb" stroke-width="0.65" stroke-linejoin="round"/>
    </svg>
