<svg xmlns="http://www.w3.org/2000/svg" viewBox="-74.56 -30.86 128.51 132.02" role="img" aria-labelledby="station-extruder-intermediate-title"
     data-view="intermediate" data-yaw="30" data-feed-x="0" data-feed-y="0" data-outlet-x="-54.71" data-outlet-y="54.17">
  <title id="station-extruder-intermediate-title">Station extruder — intermediate view</title>
  <!-- DERIVED from images/extruder/extruder-intermediate.svg by tools/station-extruder/derive.js. Do not edit; edit the
       source or the tool and regenerate. Coordinates are stage units; the feed anchor (where the
       mixer neck lands) is the origin. Colour comes from station/styles, inlined here with the
       token values resolved so the file can be viewed on its own. -->
  <style>
    .station-extruder__face { stroke: #35424f; stroke-width: 0.6px; stroke-linejoin: round; }
    .station-extruder__housing { stroke: #445468; stroke-width: 0.9px; }
    .station-extruder__housing--top, .station-extruder__feed--top { fill: #3c4b5f; }
    .station-extruder__housing--side, .station-extruder__feed--side { fill: #313f52; }
    .station-extruder__housing--front, .station-extruder__feed--front { fill: #27333f; }
    .station-extruder__vent--top { fill: #3c4b5f; stroke: #35424f; }
    .station-extruder__seam--side { fill: #445468; stroke: none; }
    .station-extruder__base--top, .station-extruder__foot--top, .station-extruder__gearbox--top { fill: #2e3b4d; }
    .station-extruder__base--side, .station-extruder__foot--side, .station-extruder__gearbox--side, .station-extruder__motor--round { fill: #253040; }
    .station-extruder__base--front, .station-extruder__foot--front, .station-extruder__gearbox--front { fill: #1b2430; }
    .station-extruder__motor--cap { fill: #2e3b4d; stroke: #445468; }
    .station-extruder__outlet--round { fill: #1b2430; }
    .station-extruder__outlet--cap { fill: #253040; }
    .station-extruder__flange--round { fill: #2e3b4d; }
    .station-extruder__flange--cap { fill: #55677d; stroke: #445468; }
    .station-extruder__recess--cap { fill: #1b2430; }
    .station-extruder__bore--cap { fill: #0d1117; }
    .station-extruder__pct { fill: #e5eaf1; font-family: ui-monospace, SFMono-Regular, "SF Mono", Menlo, monospace; font-size: calc(12px * 1); font-weight: 600; }
  </style>
  <path class="station-extruder__face station-extruder__foot station-extruder__foot--top" data-part="foot" data-face="top" d="M-5.44,63.89 L-2.25,64.27 L0.11,63.41 L-3.07,63.03 Z"/>
  <path class="station-extruder__face station-extruder__foot station-extruder__foot--side" data-part="foot" data-face="side" d="M-2.25,69.93 L0.11,69.07 L0.11,63.41 L-2.25,64.27 Z"/>
  <path class="station-extruder__face station-extruder__foot station-extruder__foot--front" data-part="foot" data-face="front" d="M-5.44,69.54 L-2.25,69.93 L-2.25,64.27 L-5.44,63.89 Z"/>
  <path class="station-extruder__face station-extruder__foot station-extruder__foot--top" data-part="foot" data-face="top" d="M-7.37,57.34 L-1.9,58 L2.04,56.58 L-3.42,55.92 Z"/>
  <path class="station-extruder__face station-extruder__foot station-extruder__foot--side" data-part="foot" data-face="side" d="M-1.9,65.97 L2.04,64.55 L2.04,56.58 L-1.9,58 Z"/>
  <path class="station-extruder__face station-extruder__foot station-extruder__foot--front" data-part="foot" data-face="front" d="M-7.37,65.32 L-1.9,65.97 L-1.9,58 L-7.37,57.34 Z"/>
  <path class="station-extruder__face station-extruder__motor station-extruder__motor--round" data-part="motor" data-face="round" d="M15.08,3.53 L17.34,2.32 L19.19,0.45 L20.5,-1.95 L21.18,-4.72 L21.18,-7.68 L20.5,-10.61 L19.19,-13.33 L17.34,-15.64 L15.08,-17.39 L12.55,-18.46 L9.94,-18.77 L7.41,-18.31 L25.74,-24.79 L28.34,-24.86 L30.93,-24.17 L33.34,-22.75 L35.42,-20.7 L37.01,-18.16 L38.02,-15.31 L38.36,-12.34 L38.02,-9.46 L37.01,-6.85 L35.42,-4.69 L33.34,-3.14 Z"/>
  <path class="station-extruder__face station-extruder__foot station-extruder__foot--top" data-part="foot" data-face="top" d="M32.36,68.42 L35.55,68.81 L37.92,67.95 L34.73,67.57 Z"/>
  <path class="station-extruder__face station-extruder__foot station-extruder__foot--side" data-part="foot" data-face="side" d="M35.55,74.46 L37.92,73.61 L37.92,67.95 L35.55,68.81 Z"/>
  <path class="station-extruder__face station-extruder__foot station-extruder__foot--front" data-part="foot" data-face="front" d="M32.36,74.08 L35.55,74.46 L35.55,68.81 L32.36,68.42 Z"/>
  <path class="station-extruder__face station-extruder__foot station-extruder__foot--top" data-part="foot" data-face="top" d="M30.44,61.88 L35.9,62.54 L39.85,61.12 L34.38,60.46 Z"/>
  <path class="station-extruder__face station-extruder__foot station-extruder__foot--side" data-part="foot" data-face="side" d="M35.9,70.51 L39.85,69.09 L39.85,61.12 L35.9,62.54 Z"/>
  <path class="station-extruder__face station-extruder__foot station-extruder__foot--front" data-part="foot" data-face="front" d="M30.44,69.85 L35.9,70.51 L35.9,62.54 L30.44,61.88 Z"/>
  <path class="station-extruder__face station-extruder__motor station-extruder__motor--cap" data-part="motor" data-face="cap" d="M21.26,-6.19 L21.06,-8.42 L20.49,-10.61 L19.57,-12.68 L18.32,-14.54 L16.8,-16.13 L15.07,-17.39 L13.19,-18.26 L11.23,-18.71 L9.28,-18.72 L7.4,-18.31 L5.67,-17.47 L4.15,-16.24 L2.9,-14.68 L1.98,-12.83 L1.41,-10.78 L1.21,-8.59 L1.41,-6.36 L1.98,-4.17 L2.9,-2.1 L4.15,-0.24 L5.67,1.35 L7.4,2.61 L9.28,3.48 L11.23,3.93 L13.19,3.95 L15.07,3.53 L16.8,2.69 L18.32,1.46 L19.57,-0.1 L20.49,-1.95 L21.06,-4 Z"/>
  <path class="station-extruder__face station-extruder__gearbox station-extruder__gearbox--top" data-part="gearbox" data-face="top" d="M-7.94,-11.76 L14.38,-9.08 L23.72,-12.44 L1.4,-15.12 Z"/>
  <path class="station-extruder__face station-extruder__gearbox station-extruder__gearbox--side" data-part="gearbox" data-face="side" d="M14.38,8.92 L23.72,5.56 L23.72,-12.44 L14.38,-9.08 Z"/>
  <path class="station-extruder__face station-extruder__gearbox station-extruder__gearbox--front" data-part="gearbox" data-face="front" d="M-7.94,6.25 L14.38,8.92 L14.38,-9.08 L-7.94,-11.76 Z"/>
  <path class="station-extruder__face station-extruder__base station-extruder__base--top" data-part="base" data-face="top" d="M-68.33,76.71 L-34.62,80.75 L47.95,51.02 L14.24,46.97 Z"/>
  <path class="station-extruder__face station-extruder__base station-extruder__base--side" data-part="base" data-face="side" d="M-34.62,95.16 L47.95,65.42 L47.95,51.02 L-34.62,80.75 Z"/>
  <path class="station-extruder__face station-extruder__housing station-extruder__housing--top" data-part="housing" data-face="top" d="M-68.56,25.75 L-34.4,29.85 L47.12,0.49 L12.96,-3.61 Z"/>
  <path class="station-extruder__face station-extruder__housing station-extruder__housing--side" data-part="housing" data-face="side" d="M-34.4,77.95 L47.12,48.59 L47.12,0.49 L-34.4,29.85 Z"/>
  <path class="station-extruder__face station-extruder__foot station-extruder__foot--top" data-part="foot" data-face="top" d="M-60.66,83.77 L-57.48,84.15 L-55.11,83.3 L-58.3,82.92 Z"/>
  <path class="station-extruder__face station-extruder__foot station-extruder__foot--side" data-part="foot" data-face="side" d="M-57.48,89.81 L-55.11,88.96 L-55.11,83.3 L-57.48,84.15 Z"/>
  <path class="station-extruder__face station-extruder__foot station-extruder__foot--front" data-part="foot" data-face="front" d="M-60.66,89.43 L-57.48,89.81 L-57.48,84.15 L-60.66,83.77 Z"/>
  <path class="station-extruder__face station-extruder__foot station-extruder__foot--top" data-part="foot" data-face="top" d="M-62.59,77.23 L-57.13,77.89 L-53.18,76.47 L-58.65,75.81 Z"/>
  <path class="station-extruder__face station-extruder__foot station-extruder__foot--side" data-part="foot" data-face="side" d="M-57.13,85.86 L-53.18,84.44 L-53.18,76.47 L-57.13,77.89 Z"/>
  <path class="station-extruder__face station-extruder__foot station-extruder__foot--front" data-part="foot" data-face="front" d="M-62.59,85.2 L-57.13,85.86 L-57.13,77.89 L-62.59,77.23 Z"/>
  <path class="station-extruder__face station-extruder__foot station-extruder__foot--top" data-part="foot" data-face="top" d="M-22.86,88.31 L-19.67,88.69 L-17.31,87.84 L-20.49,87.46 Z"/>
  <path class="station-extruder__face station-extruder__foot station-extruder__foot--side" data-part="foot" data-face="side" d="M-19.67,94.35 L-17.31,93.5 L-17.31,87.84 L-19.67,88.69 Z"/>
  <path class="station-extruder__face station-extruder__foot station-extruder__foot--front" data-part="foot" data-face="front" d="M-22.86,93.97 L-19.67,94.35 L-19.67,88.69 L-22.86,88.31 Z"/>
  <path class="station-extruder__face station-extruder__foot station-extruder__foot--top" data-part="foot" data-face="top" d="M-24.79,81.77 L-19.32,82.42 L-15.38,81 L-20.84,80.35 Z"/>
  <path class="station-extruder__face station-extruder__foot station-extruder__foot--side" data-part="foot" data-face="side" d="M-19.32,90.4 L-15.38,88.98 L-15.38,81 L-19.32,82.42 Z"/>
  <path class="station-extruder__face station-extruder__foot station-extruder__foot--front" data-part="foot" data-face="front" d="M-24.79,89.74 L-19.32,90.4 L-19.32,82.42 L-24.79,81.77 Z"/>
  <path class="station-extruder__face station-extruder__base station-extruder__base--front" data-part="base" data-face="front" d="M-68.33,91.11 L-34.62,95.16 L-34.62,80.75 L-68.33,76.71 Z"/>
  <path class="station-extruder__face station-extruder__housing station-extruder__housing--front" data-part="housing" data-face="front" d="M-68.56,73.85 L-34.4,77.95 L-34.4,29.85 L-68.56,25.75 Z"/>
  <path class="station-extruder__face station-extruder__feed station-extruder__feed--top" data-part="feed" data-face="top" d="M-8.94,1.96 L3.81,3.49 L8.94,1.64 L-3.81,0.11 Z"/>
  <path class="station-extruder__face station-extruder__feed station-extruder__feed--top" data-part="feed" data-face="top" d="M-11.32,0.25 L4.62,2.16 L11.32,-0.25 L-4.62,-2.16 Z"/>
  <path class="station-extruder__face station-extruder__feed station-extruder__feed--side" data-part="feed" data-face="side" d="M3.81,10.95 L8.94,9.1 L8.94,1.64 L3.81,3.49 Z"/>
  <path class="station-extruder__face station-extruder__feed station-extruder__feed--front" data-part="feed" data-face="front" d="M-8.94,9.42 L3.81,10.95 L3.81,3.49 L-8.94,1.96 Z"/>
  <path class="station-extruder__face station-extruder__feed station-extruder__feed--side" data-part="feed" data-face="side" d="M4.62,3.96 L11.32,1.55 L11.32,-0.25 L4.62,2.16 Z"/>
  <path class="station-extruder__face station-extruder__feed station-extruder__feed--front" data-part="feed" data-face="front" d="M-11.32,2.05 L4.62,3.96 L4.62,2.16 L-11.32,0.25 Z"/>
  <path class="station-extruder__face station-extruder__outlet station-extruder__outlet--round" data-part="outlet" data-face="round" d="M-48.35,66.13 L-45.72,64.73 L-43.58,62.57 L-42.06,59.79 L-41.28,56.57 L-41.28,53.15 L-42.06,49.75 L-43.58,46.6 L-45.72,43.92 L-48.35,41.89 L-51.28,40.65 L-54.31,40.29 L-57.24,40.83 L-54.5,39.98 L-51.49,39.89 L-48.48,40.7 L-45.68,42.35 L-43.28,44.72 L-41.43,47.66 L-40.27,50.96 L-39.87,54.41 L-40.27,57.75 L-41.43,60.78 L-43.28,63.27 L-45.68,65.07 Z"/>
  <path class="station-extruder__face station-extruder__outlet station-extruder__outlet--cap" data-part="outlet" data-face="cap" d="M-41.18,54.88 L-41.41,52.29 L-42.07,49.75 L-43.14,47.35 L-44.58,45.19 L-46.35,43.35 L-48.35,41.9 L-50.53,40.89 L-52.8,40.36 L-55.06,40.34 L-57.24,40.83 L-59.25,41.8 L-61.01,43.22 L-62.46,45.04 L-63.53,47.17 L-64.19,49.56 L-64.41,52.09 L-64.19,54.67 L-63.53,57.21 L-62.46,59.61 L-61.01,61.77 L-59.25,63.61 L-57.24,65.07 L-55.06,66.08 L-52.8,66.6 L-50.53,66.62 L-48.35,66.14 L-46.35,65.16 L-44.58,63.74 L-43.14,61.93 L-42.07,59.79 L-41.41,57.41 Z"/>
  <path class="station-extruder__face station-extruder__flange station-extruder__flange--round" data-part="flange" data-face="round" d="M-50.71,65.31 L-48.39,64.07 L-46.5,62.17 L-45.17,59.71 L-44.47,56.87 L-44.47,53.85 L-45.17,50.85 L-46.5,48.07 L-48.39,45.71 L-50.71,43.92 L-53.29,42.83 L-55.97,42.51 L-58.55,42.98 L-55.47,41.99 L-52.82,41.91 L-50.16,42.63 L-47.69,44.08 L-45.57,46.17 L-43.94,48.77 L-42.92,51.68 L-42.57,54.72 L-42.92,57.67 L-43.94,60.34 L-45.57,62.54 L-47.69,64.13 Z"/>
  <path class="station-extruder__face station-extruder__flange station-extruder__flange--cap" data-part="flange" data-face="cap" d="M-44.39,55.38 L-44.59,53.09 L-45.17,50.85 L-46.12,48.74 L-47.39,46.83 L-48.94,45.2 L-50.72,43.92 L-52.64,43.03 L-54.64,42.57 L-56.64,42.55 L-58.56,42.98 L-60.33,43.84 L-61.88,45.09 L-63.16,46.69 L-64.11,48.58 L-64.69,50.68 L-64.89,52.91 L-64.69,55.2 L-64.11,57.44 L-63.16,59.55 L-61.88,61.46 L-60.33,63.09 L-58.56,64.37 L-56.64,65.26 L-54.64,65.72 L-52.64,65.74 L-50.72,65.31 L-48.94,64.45 L-47.39,63.2 L-46.12,61.6 L-45.17,59.71 L-44.59,57.61 Z"/>
  <path class="station-extruder__face station-extruder__seam station-extruder__seam--side" data-part="seam" data-face="side" d="M28.37,51.51 L28.57,51.44 L28.57,10.54 L28.37,10.61 Z"/>
  <path class="station-extruder__face station-extruder__vent station-extruder__vent--top" data-part="vent" data-face="top" d="M-60.51,24.77 L-34.55,27.88 L8.18,12.5 L-17.78,9.38 Z"/>
  <path class="station-extruder__face station-extruder__recess station-extruder__recess--cap" data-part="recess" data-face="cap" d="M-50.58,54.65 L-50.66,53.74 L-50.9,52.84 L-51.28,52 L-51.79,51.24 L-52.41,50.58 L-53.11,50.07 L-53.89,49.72 L-54.68,49.53 L-55.48,49.52 L-56.25,49.7 L-56.96,50.04 L-57.58,50.54 L-58.09,51.18 L-58.47,51.94 L-58.71,52.77 L-58.78,53.67 L-58.71,54.58 L-58.47,55.48 L-58.09,56.32 L-57.58,57.09 L-56.96,57.74 L-56.25,58.25 L-55.48,58.61 L-54.68,58.79 L-53.89,58.8 L-53.11,58.63 L-52.41,58.28 L-51.79,57.78 L-51.28,57.14 L-50.9,56.39 L-50.66,55.55 Z"/>
  <path class="station-extruder__face station-extruder__bore station-extruder__bore--cap" data-part="bore" data-face="cap" d="M-51.98,54.5 L-52.03,53.89 L-52.19,53.29 L-52.44,52.73 L-52.78,52.22 L-53.19,51.79 L-53.66,51.44 L-54.18,51.21 L-54.71,51.08 L-55.24,51.08 L-55.76,51.19 L-56.23,51.42 L-56.64,51.76 L-56.98,52.18 L-57.24,52.69 L-57.39,53.25 L-57.44,53.84 L-57.39,54.45 L-57.24,55.05 L-56.98,55.61 L-56.64,56.12 L-56.23,56.55 L-55.76,56.9 L-55.24,57.13 L-54.71,57.26 L-54.18,57.26 L-53.66,57.15 L-53.19,56.92 L-52.78,56.59 L-52.44,56.16 L-52.19,55.65 L-52.03,55.09 Z"/>
</svg>
