<svg xmlns="http://www.w3.org/2000/svg" viewBox="-69 -185.18 138 192.93" role="img" aria-labelledby="station-tsm-core-front-title"
     data-view="front" data-yaw="0" data-outlet-x="0" data-outlet-y="0" data-inlet-x="0" data-inlet-y="-172.55">
  <title id="station-tsm-core-front-title">Station TSM blender, four-loader (no side storage) — front view</title>
  <!-- GENERATED by tools/station-tsm/generate.js. Do not edit; edit the tool and regenerate.
       Coordinates are stage units; the discharge (where the extruder's feed anchor goes) is the
       origin. Colour comes from station/styles (the mixer's tone classes), inlined here with the
       token values resolved so the file can be viewed on its own. -->
  <style>
    .station-mixer__face { stroke: #4d5f75; stroke-width: calc(0.6px * 1); stroke-linejoin: round; }
    .station-mixer__face--front { fill: #313f52; }
    .station-mixer__face--side { fill: #27333f; }
    .station-mixer__face--top { fill: #3c4b5f; }
    .station-mixer__face--light { fill: #71849a; }
    .station-mixer__face--dark { fill: #1b2430; }
    .station-mixer__face--steel { fill: #50637a; }
    .station-mixer__face--edge { fill: #5d7087; }
    .station-mixer__face--material { fill: #718494; }
    .station-mixer__face--hose { fill: #253040; }
    .station-mixer__face--blue { fill: #4f89a8; }
    .station-mixer__face--window { fill: #0d1117; stroke: #4d5f75; }
    .station-mixer__seam { stroke-width: 0.15px; }
    .station-mixer__seam--front { stroke: #313f52; }
    .station-mixer__seam--side { stroke: #27333f; }
    .station-mixer__seam--top { stroke: #3c4b5f; }
    .station-mixer__seam--light { stroke: #71849a; }
    .station-mixer__seam--dark { stroke: #1b2430; }
    .station-mixer__seam--edge { stroke: #5d7087; }
    .station-mixer__seam--material { stroke: #718494; }
    .station-mixer__seam--hose { stroke: #253040; }
    .station-mixer__seam--accent { stroke: #d6a85d; }
    .station-mixer__face--accent { fill: #b9832f; stroke: #d6a85d; }
    .station-mixer__blade { fill: #313f52; stroke: #3b4959; stroke-width: calc(0.6px * 1); }
    .station-mixer__agitator { transform-box: view-box; transform-origin: 0 0; }
  </style>
  <path class="station-mixer__face station-mixer__face--top" data-part="outlet-neck" d="M8.4,-18.08 L8.33,-18.3 L8.11,-18.53 L7.76,-18.74 L7.27,-18.95 L6.66,-19.14 L5.94,-19.31 L5.11,-19.46 L4.2,-19.59 L3.21,-19.69 L2.17,-19.76 L1.1,-19.81 L0,-19.82 L-1.1,-19.81 L-2.17,-19.76 L-3.21,-19.69 L-4.2,-19.59 L-5.11,-19.46 L-5.94,-19.31 L-6.66,-19.14 L-7.27,-18.95 L-7.76,-18.74 L-8.11,-18.53 L-8.33,-18.3 L-8.4,-18.08 L-8.33,-17.85 L-8.11,-17.62 L-7.76,-17.41 L-7.27,-17.2 L-6.66,-17.01 L-5.94,-16.84 L-5.11,-16.69 L-4.2,-16.56 L-3.21,-16.46 L-2.17,-16.39 L-1.1,-16.34 L0,-16.33 L1.1,-16.34 L2.17,-16.39 L3.21,-16.46 L4.2,-16.56 L5.11,-16.69 L5.94,-16.84 L6.66,-17.01 L7.27,-17.2 L7.76,-17.41 L8.11,-17.62 L8.33,-17.85 Z"/>
  <path class="station-mixer__face station-mixer__face--top station-mixer__seam station-mixer__seam--top" data-part="outlet-neck" d="M-8.4,0 L-8.33,0.23 L-8.11,0.45 L-7.76,0.67 L-7.27,0.87 L-6.66,1.06 L-5.94,1.23 L-5.11,1.39 L-4.2,1.51 L-3.21,1.61 L-3.21,-16.46 L-4.2,-16.56 L-5.11,-16.69 L-5.94,-16.84 L-6.66,-17.01 L-7.27,-17.2 L-7.76,-17.41 L-8.11,-17.62 L-8.33,-17.85 L-8.4,-18.08 Z"/>
  <path class="station-mixer__face station-mixer__face--front station-mixer__seam station-mixer__seam--front" data-part="outlet-neck" d="M-3.21,1.61 L-2.17,1.69 L-1.1,1.73 L0,1.75 L1.1,1.73 L2.17,1.69 L3.21,1.61 L4.2,1.51 L5.11,1.39 L5.11,-16.69 L4.2,-16.56 L3.21,-16.46 L2.17,-16.39 L1.1,-16.34 L0,-16.33 L-1.1,-16.34 L-2.17,-16.39 L-3.21,-16.46 Z"/>
  <path class="station-mixer__face station-mixer__face--side station-mixer__seam station-mixer__seam--side" data-part="outlet-neck" d="M5.11,1.39 L5.94,1.23 L6.66,1.06 L7.27,0.87 L7.76,0.67 L8.11,0.45 L8.33,0.23 L8.4,0 L8.4,-18.08 L8.33,-17.85 L8.11,-17.62 L7.76,-17.41 L7.27,-17.2 L6.66,-17.01 L5.94,-16.84 L5.11,-16.69 Z"/>
  <path class="station-mixer__face station-mixer__face--top" data-part="outlet-flange" d="M12.6,-4.93 L12.49,-5.27 L12.17,-5.61 L11.64,-5.93 L10.91,-6.24 L10,-6.52 L8.91,-6.78 L7.67,-7.01 L6.3,-7.2 L4.82,-7.35 L3.26,-7.46 L1.64,-7.53 L0,-7.55 L-1.64,-7.53 L-3.26,-7.46 L-4.82,-7.35 L-6.3,-7.2 L-7.67,-7.01 L-8.91,-6.78 L-10,-6.52 L-10.91,-6.24 L-11.64,-5.93 L-12.17,-5.61 L-12.49,-5.27 L-12.6,-4.93 L-12.49,-4.59 L-12.17,-4.25 L-11.64,-3.93 L-10.91,-3.62 L-10,-3.34 L-8.91,-3.08 L-7.67,-2.85 L-6.3,-2.66 L-4.82,-2.51 L-3.26,-2.4 L-1.64,-2.33 L0,-2.31 L1.64,-2.33 L3.26,-2.4 L4.82,-2.51 L6.3,-2.66 L7.67,-2.85 L8.91,-3.08 L10,-3.34 L10.91,-3.62 L11.64,-3.93 L12.17,-4.25 L12.49,-4.59 Z"/>
  <path class="station-mixer__face station-mixer__face--top station-mixer__seam station-mixer__seam--top" data-part="outlet-flange" d="M-12.6,-1.64 L-12.49,-1.3 L-12.17,-0.97 L-11.64,-0.64 L-10.91,-0.33 L-10,-0.05 L-8.91,0.21 L-7.67,0.44 L-6.3,0.63 L-4.82,0.78 L-4.82,-2.51 L-6.3,-2.66 L-7.67,-2.85 L-8.91,-3.08 L-10,-3.34 L-10.91,-3.62 L-11.64,-3.93 L-12.17,-4.25 L-12.49,-4.59 L-12.6,-4.93 Z"/>
  <path class="station-mixer__face station-mixer__face--front station-mixer__seam station-mixer__seam--front" data-part="outlet-flange" d="M-4.82,0.78 L-3.26,0.89 L-1.64,0.95 L0,0.98 L1.64,0.95 L3.26,0.89 L4.82,0.78 L6.3,0.63 L7.67,0.44 L7.67,-2.85 L6.3,-2.66 L4.82,-2.51 L3.26,-2.4 L1.64,-2.33 L0,-2.31 L-1.64,-2.33 L-3.26,-2.4 L-4.82,-2.51 Z"/>
  <path class="station-mixer__face station-mixer__face--side station-mixer__seam station-mixer__seam--side" data-part="outlet-flange" d="M7.67,0.44 L8.91,0.21 L10,-0.05 L10.91,-0.33 L11.64,-0.64 L12.17,-0.97 L12.49,-1.3 L12.6,-1.64 L12.6,-4.93 L12.49,-4.59 L12.17,-4.25 L11.64,-3.93 L10.91,-3.62 L10,-3.34 L8.91,-3.08 L7.67,-2.85 Z"/>
  <path class="station-mixer__face station-mixer__face--steel" data-part="base-plate" d="M-31.08,-15.95 L31.08,-15.95 L31.08,-26.78 L-31.08,-26.78 Z"/>
  <path class="station-mixer__face station-mixer__face--dark" data-part="base-plate" d="M-31.08,-12.66 L31.08,-12.66 L31.08,-15.95 L-31.08,-15.95 Z"/>
  <path class="station-mixer__face station-mixer__face--light station-mixer__seam station-mixer__seam--light" data-part="motor" d="M-42,-51.95 L-42,-51.76 L-42,-51.35 L-42,-50.73 L-42,-49.91 L-42,-48.91 L-42,-47.76 L-42,-46.48 L-26.04,-46.48 L-26.04,-47.76 L-26.04,-48.91 L-26.04,-49.91 L-26.04,-50.73 L-26.04,-51.35 L-26.04,-51.76 L-26.04,-51.95 Z"/>
  <path class="station-mixer__face station-mixer__face--steel station-mixer__seam station-mixer__seam--steel" data-part="motor" d="M-42,-46.48 L-42,-45.12 L-42,-43.69 L-42,-42.24 L-42,-40.8 L-42,-39.41 L-42,-38.11 L-42,-36.91 L-42,-35.86 L-26.04,-35.86 L-26.04,-36.91 L-26.04,-38.11 L-26.04,-39.41 L-26.04,-40.8 L-26.04,-42.24 L-26.04,-43.69 L-26.04,-45.12 L-26.04,-46.48 Z"/>
  <path class="station-mixer__face station-mixer__face--dark station-mixer__seam station-mixer__seam--dark" data-part="motor" d="M-42,-35.86 L-42,-34.98 L-42,-34.28 L-42,-33.8 L-42,-33.54 L-42,-33.5 L-26.04,-33.5 L-26.04,-33.54 L-26.04,-33.8 L-26.04,-34.28 L-26.04,-34.98 L-26.04,-35.86 Z"/>
  <path class="station-mixer__face station-mixer__face--steel" data-part="gearbox" d="M-34.44,-48.64 L-26.04,-48.64 L-26.04,-51.6 L-34.44,-51.6 Z"/>
  <path class="station-mixer__face station-mixer__face--dark" data-part="gearbox" d="M-34.44,-33.85 L-26.04,-33.85 L-26.04,-48.64 L-34.44,-48.64 Z"/>
  <path class="station-mixer__face station-mixer__face--blue" data-part="weigh-body" d="M-26.04,-58.08 L26.04,-58.08 L26.04,-66.81 L-26.04,-66.81 Z"/>
  <path class="station-mixer__face station-mixer__face--blue" data-part="weigh-body" d="M-26.04,-17 L26.04,-17 L26.04,-58.08 L-26.04,-58.08 Z"/>
  <path class="station-mixer__face station-mixer__face--window" data-part="body-window" d="M-15.96,-25.19 L15.96,-25.19 L15.96,-52.3 L-15.96,-52.3 Z"/>
  <path class="station-mixer__face station-mixer__face--material station-mixer__seam station-mixer__seam--material" data-part="body-material" d="M-15.12,-26 L15.12,-26 L15.12,-35.04 L7.18,-41.61 L0,-43.25 L-7.98,-40.79 L-15.12,-35.86 Z"/>
  <path class="station-mixer__face station-mixer__face--blue" data-part="weigh-hood" d="M-29.4,-73.81 L29.4,-73.81 L29.4,-83.94 L-29.4,-83.94 Z"/>
  <path class="station-mixer__face station-mixer__face--blue" data-part="weigh-hood" d="M-29.4,-57.38 L29.4,-57.38 L29.4,-73.81 L-29.4,-73.81 Z"/>
  <path class="station-mixer__face station-mixer__face--steel" data-part="transition" d="M-19.32,-77.33 L19.32,-77.33 L19.32,-85.36 L-19.32,-85.36 Z"/>
  <path class="station-mixer__face station-mixer__face--dark" data-part="transition" d="M-19.32,-73.22 L19.32,-73.22 L19.32,-77.33 L-19.32,-77.33 Z"/>
  <path class="station-mixer__face station-mixer__face--light" data-part="funnel" d="M-17.64,-77.68 L17.64,-77.68 L63,-133.86 L-63,-133.86 Z"/>
  <path class="station-mixer__face station-mixer__face--dark" data-part="sight-frame" d="M-12.18,-110.77 L-12.32,-111.78 L-12.74,-112.72 L-13.41,-113.53 L-14.28,-114.15 L-15.29,-114.54 L-16.38,-114.67 L-28.98,-114.67 L-30.07,-114.54 L-31.08,-114.15 L-31.95,-113.53 L-32.62,-112.72 L-33.04,-111.78 L-33.18,-110.77 L-33.18,-99.06 L-33.04,-98.05 L-32.62,-97.11 L-31.95,-96.31 L-31.08,-95.69 L-30.07,-95.3 L-28.98,-95.16 L-16.38,-95.16 L-15.29,-95.3 L-14.28,-95.69 L-13.41,-96.31 L-12.74,-97.11 L-12.32,-98.05 L-12.18,-99.06 Z"/>
  <path class="station-mixer__face station-mixer__face--window" data-part="sight-window" d="M-13.44,-110.7 L-13.54,-111.41 L-13.83,-112.06 L-14.3,-112.63 L-14.91,-113.06 L-15.62,-113.34 L-16.38,-113.43 L-28.98,-113.43 L-29.74,-113.34 L-30.45,-113.06 L-31.06,-112.63 L-31.53,-112.06 L-31.82,-111.41 L-31.92,-110.7 L-31.92,-98.99 L-31.82,-98.29 L-31.53,-97.63 L-31.06,-97.06 L-30.45,-96.63 L-29.74,-96.35 L-28.98,-96.26 L-16.38,-96.26 L-15.62,-96.35 L-14.91,-96.63 L-14.3,-97.06 L-13.83,-97.63 L-13.54,-98.29 L-13.44,-98.99 Z"/>
  <path class="station-mixer__face station-mixer__face--material station-mixer__seam station-mixer__seam--material" data-part="sight-material" d="M-31.08,-96.97 L-14.28,-96.97 L-14.28,-103.99 L-19.32,-106.73 L-25.2,-105.94 L-31.08,-103.6 Z"/>
  <path class="station-mixer__face station-mixer__face--dark" data-part="sight-port" d="M-20.58,-115.7 L-20.74,-116.45 L-21.2,-117.08 L-21.88,-117.5 L-22.68,-117.65 L-23.48,-117.5 L-24.16,-117.08 L-24.62,-116.45 L-24.78,-115.7 L-24.62,-114.95 L-24.16,-114.32 L-23.48,-113.9 L-22.68,-113.75 L-21.88,-113.9 L-21.2,-114.32 L-20.74,-114.95 Z"/>
  <path class="station-mixer__face station-mixer__face--dark station-mixer__seam station-mixer__seam--dark" data-part="level-sensor" d="M-17.64,-88.6 L-17.98,-89.77 L-17.98,-88.16 L-17.64,-86.99 Z"/>
  <path class="station-mixer__face station-mixer__face--accent station-mixer__seam station-mixer__seam--accent" data-part="level-sensor" d="M-17.98,-89.77 L-18.9,-90.63 L-20.16,-90.94 L-21.42,-90.63 L-22.34,-89.77 L-22.34,-88.16 L-21.42,-89.01 L-20.16,-89.33 L-18.9,-89.01 L-17.98,-88.16 Z"/>
  <path class="station-mixer__face station-mixer__face--dark station-mixer__seam station-mixer__seam--dark" data-part="level-sensor" d="M-22.34,-89.77 L-22.68,-88.6 L-22.68,-86.99 L-22.34,-88.16 Z"/>
  <path class="station-mixer__face station-mixer__face--accent" data-part="level-sensor" d="M-17.64,-86.99 L-17.98,-88.16 L-18.9,-89.01 L-20.16,-89.33 L-21.42,-89.01 L-22.34,-88.16 L-22.68,-86.99 L-22.34,-85.82 L-21.42,-84.96 L-20.16,-84.65 L-18.9,-84.96 L-17.98,-85.82 Z"/>
  <path class="station-mixer__face station-mixer__face--dark" data-part="sight-frame" d="M33.18,-110.77 L33.04,-111.78 L32.62,-112.72 L31.95,-113.53 L31.08,-114.15 L30.07,-114.54 L28.98,-114.67 L16.38,-114.67 L15.29,-114.54 L14.28,-114.15 L13.41,-113.53 L12.74,-112.72 L12.32,-111.78 L12.18,-110.77 L12.18,-99.06 L12.32,-98.05 L12.74,-97.11 L13.41,-96.31 L14.28,-95.69 L15.29,-95.3 L16.38,-95.16 L28.98,-95.16 L30.07,-95.3 L31.08,-95.69 L31.95,-96.31 L32.62,-97.11 L33.04,-98.05 L33.18,-99.06 Z"/>
  <path class="station-mixer__face station-mixer__face--window" data-part="sight-window" d="M31.92,-110.7 L31.82,-111.41 L31.53,-112.06 L31.06,-112.63 L30.45,-113.06 L29.74,-113.34 L28.98,-113.43 L16.38,-113.43 L15.62,-113.34 L14.91,-113.06 L14.3,-112.63 L13.83,-112.06 L13.54,-111.41 L13.44,-110.7 L13.44,-98.99 L13.54,-98.29 L13.83,-97.63 L14.3,-97.06 L14.91,-96.63 L15.62,-96.35 L16.38,-96.26 L28.98,-96.26 L29.74,-96.35 L30.45,-96.63 L31.06,-97.06 L31.53,-97.63 L31.82,-98.29 L31.92,-98.99 Z"/>
  <path class="station-mixer__face station-mixer__face--material station-mixer__seam station-mixer__seam--material" data-part="sight-material" d="M14.28,-96.97 L31.08,-96.97 L31.08,-103.99 L26.04,-106.73 L20.16,-105.94 L14.28,-103.6 Z"/>
  <path class="station-mixer__face station-mixer__face--dark" data-part="sight-port" d="M24.78,-115.7 L24.62,-116.45 L24.16,-117.08 L23.48,-117.5 L22.68,-117.65 L21.88,-117.5 L21.2,-117.08 L20.74,-116.45 L20.58,-115.7 L20.74,-114.95 L21.2,-114.32 L21.88,-113.9 L22.68,-113.75 L23.48,-113.9 L24.16,-114.32 L24.62,-114.95 Z"/>
  <path class="station-mixer__face station-mixer__face--dark station-mixer__seam station-mixer__seam--dark" data-part="level-sensor" d="M22.68,-88.6 L22.34,-89.77 L22.34,-88.16 L22.68,-86.99 Z"/>
  <path class="station-mixer__face station-mixer__face--accent station-mixer__seam station-mixer__seam--accent" data-part="level-sensor" d="M22.34,-89.77 L21.42,-90.63 L20.16,-90.94 L18.9,-90.63 L17.98,-89.77 L17.98,-88.16 L18.9,-89.01 L20.16,-89.33 L21.42,-89.01 L22.34,-88.16 Z"/>
  <path class="station-mixer__face station-mixer__face--dark station-mixer__seam station-mixer__seam--dark" data-part="level-sensor" d="M17.98,-89.77 L17.64,-88.6 L17.64,-86.99 L17.98,-88.16 Z"/>
  <path class="station-mixer__face station-mixer__face--accent" data-part="level-sensor" d="M22.68,-86.99 L22.34,-88.16 L21.42,-89.01 L20.16,-89.33 L18.9,-89.01 L17.98,-88.16 L17.64,-86.99 L17.98,-85.82 L18.9,-84.96 L20.16,-84.65 L21.42,-84.96 L22.34,-85.82 Z"/>
  <path class="station-mixer__face station-mixer__face--dark" data-part="collar-rim" d="M-63,-134.69 L63,-134.69 L63,-147.96 L-63,-147.96 Z"/>
  <path class="station-mixer__face station-mixer__face--dark" data-part="collar-rim" d="M-63,-132.22 L63,-132.22 L63,-134.69 L-63,-134.69 Z"/>
  <path class="station-mixer__face station-mixer__face--edge" data-part="collar" d="M-63,-165.91 L63,-165.91 L63,-179.18 L-63,-179.18 Z"/>
  <path class="station-mixer__face station-mixer__face--light" data-part="collar" d="M-63,-134.69 L63,-134.69 L63,-165.91 L-63,-165.91 Z"/>
</svg>
